<?xml version="1.0" encoding="utf-8"?>
<!-- Generator: Adobe Illustrator 27.5.0, SVG Export Plug-In . SVG Version: 6.00 Build 0)  -->
<svg version="1.1" id="Слой_1" xmlns="http://www.w3.org/2000/svg" xmlns:xlink="http://www.w3.org/1999/xlink" x="0px" y="0px"
	 viewBox="0 0 3242.972 2000" style="enable-background:new 0 0 3242.972 2000;" xml:space="preserve">
<g>
	<rect y="0.001" style="fill:#FFFFFF;" width="3242.972" height="2000"/>
	<path style="fill:#E3EAFF;" d="M164.847,1946.128c-254.85-382.154-109.396-766.399,184.239-984.469
		c298.492-221.679-38.482-680.303,555.618-866.924c307.339-96.544,577.608,166.748,878.854,178.188
		c269.935,10.252,549.174-221.94,823.244-114.379c183.279,61.918,366.496,235.684,352.832,443.448
		c-7.062,107.36-69.574,234.453-4.844,316.012c273.195,344.222,245.035,645.306,137.968,1023.302
		C3092.783,1941.296,164.847,1946.128,164.847,1946.128z"/>
	<path style="fill:#95A6DB;" d="M3088.463,1960.391H142.101c-5.804,0-10.509-4.973-10.509-11.108l0,0
		c0-6.137,4.705-11.11,10.509-11.11h2946.362c5.805,0,10.509,4.974,10.509,11.11l0,0
		C3098.972,1955.418,3094.268,1960.391,3088.463,1960.391z"/>
	<g>
		<g id="c_41_">
			<g>
				<polygon id="v-2_4_" style="fill:#F37A50;" points="2303.783,956.165 2303.748,956.165 2273.931,956.274 2267.177,1026.704 
					2301.986,1045.084 2339.104,1026.911 2333.105,956.274 				"/>
				<g>
					<g>
						<path style="fill:#F37A50;" d="M2365.049,901.698c-4.539,49.187-39.535,86.171-78.167,82.605
							c-38.632-3.564-66.269-46.328-61.729-95.514c4.539-49.188,39.535-86.172,78.166-82.606
							C2341.95,809.748,2369.588,852.512,2365.049,901.698z"/>
						<path style="fill:#DE623C;" d="M2276.289,906.376c-6.698,9.491-15.161,21.055-15.161,21.055s3.019,10.573,16.694,11.486
							c-5.659-2.719-11.168-6.938-8.375-14.526C2272.241,916.802,2276.289,906.376,2276.289,906.376z"/>
						<path d="M2379.324,861.729c2.301-46.783-41.178-60.374-41.178-60.374s9.465-3.761,6.572-17.761
							c-6.605,4.433-14.814,6.691-22.756,6.225c-53.51-3.144-86.707,6.964-80.568,27.64c2.186,7.358-32.234,12.553-14.861,61.256
							c3.063-5.956,5.148-27.935,15.319-33.164c10.208-5.248,4.72,12.058,28.153,8.464c23.646-3.627,38.713-14.101,56.395-5.413
							c14.177,7.949,33.754,64.014,33.119,67.925C2360.975,907.556,2378.313,882.289,2379.324,861.729z"/>
						<path d="M2225.846,915.515c0,0,5.605,26.406,11.693,33.278c0.801-11.497,26.197-5.3,37.146-4.78
							c19.827,0.942,39.181-17.395,46.876,8.287c25.219,0.452,32.159-55.305,32.159-55.305
							c17.692,54.732-13.352,98.015-74.127,106.081C2239.553,1008.393,2220.191,956.192,2225.846,915.515z"/>
						<g>
							<path style="fill:#DE623C;" d="M2292.535,956.895c3.465-1.998,6.899-4.674,10.289-8.023c0.882-0.871,0.891-2.292,0.02-3.174
								c-0.872-0.882-2.293-0.891-3.176-0.019c-7.512,7.425-15.114,11.16-22.594,11.104c-9.248-0.07-15.242-6.063-15.301-6.123
								c-0.866-0.883-2.285-0.9-3.171-0.038c-0.885,0.865-0.907,2.278-0.047,3.167c0.291,0.3,7.265,7.362,18.399,7.482
								C2282.18,961.327,2287.391,959.86,2292.535,956.895z"/>
						</g>
						<path d="M2306.654,904.57c3.876,0.106,7.104-2.952,7.208-6.829c0.106-3.876-2.952-7.104-6.829-7.209
							c-3.875-0.104-7.104,2.953-7.209,6.829C2299.72,901.238,2302.777,904.466,2306.654,904.57z"/>
						<path d="M2250.713,903.057c3.877,0.105,7.104-2.952,7.209-6.829c0.104-3.877-2.953-7.104-6.83-7.209
							c-3.876-0.104-7.104,2.953-7.208,6.828C2243.779,899.725,2246.836,902.952,2250.713,903.057z"/>
						<g>
							<path d="M2238.707,889.38c1.15,0.031,2.289-0.529,2.947-1.573c1.813-2.876,3.959-4.572,6.381-5.04
								c4.186-0.809,8.232,2.08,8.273,2.11c1.502,1.089,3.609,0.765,4.706-0.732c1.097-1.497,0.786-3.593-0.704-4.697
								c-0.258-0.19-6.375-4.65-13.477-3.319c-4.36,0.817-8.022,3.537-10.886,8.081c-0.993,1.576-0.521,3.658,1.056,4.651
								C2237.533,889.196,2238.123,889.364,2238.707,889.38z"/>
						</g>
						<g>
							<path d="M2320.321,891.93c0.739,0.02,1.49-0.201,2.126-0.683c1.484-1.124,1.776-3.24,0.651-4.724
								c-4.281-5.651-9.104-8.793-14.333-9.342c-6.75-0.708-11.511,3.337-11.71,3.51c-1.408,1.219-1.562,3.349-0.342,4.758
								c1.213,1.4,3.327,1.558,4.734,0.36c0.102-0.083,2.929-2.343,6.698-1.911c3.271,0.375,6.494,2.63,9.576,6.698
								C2318.365,891.445,2319.333,891.903,2320.321,891.93z"/>
						</g>
						<g>
							<path style="fill:#F37A50;" d="M2354.372,897.196c-8.089,8.336-9.117,20.46-2.295,27.08
								c6.821,6.619,18.909,5.229,26.997-3.107c8.09-8.336,9.118-20.46,2.295-27.08
								C2374.549,887.47,2362.461,888.86,2354.372,897.196z"/>
							<g>
								<path style="fill:#DE623C;" d="M2362.916,920.558c-0.363-0.122-0.703-0.326-0.991-0.616
									c-4.136-4.15-5.194-9.315-2.83-13.817c2.421-4.611,7.736-7.31,12.64-6.418c1.379,0.252,2.295,1.574,2.044,2.954
									c-0.251,1.379-1.573,2.294-2.954,2.044c-2.685-0.489-5.862,1.172-7.231,3.781c-1.315,2.507-0.632,5.302,1.93,7.871
									c0.989,0.993,0.988,2.602-0.006,3.592C2364.812,920.649,2363.799,920.854,2362.916,920.558z"/>
							</g>
						</g>
					</g>
				</g>
			</g>
			<path style="fill:#201D40;" d="M2249.369,1877.57c-26.365,36.377-91.113,14.055-88.971,63.258c98.463-0.631,139.384,0,139.384,0
				c-0.13-11.301-2.075-38.124-4.347-48.624L2249.369,1877.57z"/>
			<path style="fill:#201D40;" d="M2394.361,1877.57c-26.365,36.377-91.114,14.055-88.971,63.258c98.463-0.631,139.383,0,139.383,0
				c-0.129-11.301-2.076-38.124-4.346-48.624L2394.361,1877.57z"/>
			<path style="fill:#748DDB;" d="M2185.425,1322.461c0,0-9.438,240.525-2.942,292.361c6.494,51.836,42.057,109.887,39.449,281.341
				c32.098,8.036,78.602,0,78.602,0s6.895-193.87-27.037-280.462c13.798-84.111,58.072-276.764,58.072-276.764L2185.425,1322.461z"
				/>
			<path style="fill:#89A2F0;" d="M2254.265,1328.574c0,0,32.28,261.757,48.081,311.404c15.802,49.648,39.543,86.412,68.15,255.316
				c32.984,1.65,63.127,5.391,63.127,5.391s15.047-216.323-36.326-265.045c-1.738-85.297-3.543-305.385-3.543-305.385
				L2254.265,1328.574z"/>
			<g id="v_4_">
				<path id="h-5_3_" style="fill:#E62552;" d="M2413.352,1031.5c0,0-56.064-19.629-74.76-10.627c-58.09,27.972-71.415,0-71.415,0
					c-20.376-4.521-68.507-4.521-68.507-4.521c-6.092,81.311-24.317,340.961-24.317,340.961s69.939,16.59,128.413,17.012
					c58.473-0.379,117.986-15.969,117.986-15.969s-3.123-113.668-5.72-155.917C2415.875,1155.083,2413.352,1093.91,2413.352,1031.5z
					"/>
			</g>
			<path style="fill:#C4204A;" d="M2413.352,1031.5c51.221,22.035,114.07,72.82,152.749,153.266
				c13.263,27.585-49.794,33.155-62.364,22.281s-90.385-92.09-90.385-92.09V1031.5z"/>
			<polygon style="fill:#C4204A;" points="2198.67,1016.352 1956.123,1115.859 1968.23,1177.039 2192.964,1113.189 			"/>
		</g>
		<g>
			<path d="M2671.144,1877.288c-26.954,35.954-93.149,13.893-90.958,62.522c100.662-0.624,142.498,0,142.498,0
				c-0.132-11.17-2.123-37.68-4.443-48.057L2671.144,1877.288z"/>
			<path d="M2821.754,1878.231c-26.955,35.954-93.15,13.892-90.959,62.522c100.664-0.625,142.498,0,142.498,0
				c-0.131-11.169-2.121-37.681-4.443-48.058L2821.754,1878.231z"/>
			<path style="fill:#201D40;" d="M2624.545,1328.387c0,0-27.32,231.479-20.682,282.712c6.641,51.231,36.926,117.228,34.261,286.686
				c32.815,7.943,84.56-1.354,84.56-1.354s7.049-191.611-27.641-277.195c14.105-83.134,59.371-273.541,59.371-273.541
				L2624.545,1328.387z"/>
			<path style="fill:#2C2858;" d="M2686.657,1334.686c0,0,33.002,258.708,49.157,307.778c16.154,49.069,37.076,84.273,66.322,251.21
				c33.723,1.631,84.492-0.385,84.492-0.385s-13.336-205.08-65.856-253.235c-1.778-84.302,8.493-303.706,8.493-303.706
				L2686.657,1334.686z"/>
			<g>
				<path style="fill:#F37A50;" d="M2780.498,883.955c-3.037,48.049-36.093,85.066-73.831,82.681
					c-37.737-2.386-65.868-43.271-62.83-91.321c3.038-48.051,36.093-85.068,73.831-82.682
					C2755.406,795.02,2783.536,835.905,2780.498,883.955z"/>
				<path d="M2673.156,889.15c-1.931,3.431-6.276,4.649-9.707,2.719c-3.43-1.93-4.648-6.276-2.719-9.707
					c1.93-3.431,6.276-4.648,9.707-2.719C2673.868,881.374,2675.086,885.72,2673.156,889.15z"/>
				<path d="M2730.934,889.784c-2.088,3.713-6.793,5.032-10.507,2.943c-3.714-2.089-5.032-6.794-2.943-10.508
					c2.089-3.713,6.794-5.031,10.508-2.942C2731.705,881.366,2733.022,886.07,2730.934,889.784z"/>
				<path style="fill:#DE623C;" d="M2689.574,890.48c-3.362,10.811-7.739,24.075-7.739,24.075s5.975,8.899,18.929,5.641
					c-6.063-0.823-12.438-3.082-12.126-10.958C2688.949,901.364,2689.574,890.48,2689.574,890.48z"/>
				<g>
					<path style="fill:#201D40;" d="M2667.582,866.643c-0.871,0.34-1.891,0.226-2.679-0.389c-0.079-0.059-2.753-2.048-5.673-1.465
						c-2.06,0.41-3.93,2.048-5.556,4.866c-0.755,1.309-2.428,1.756-3.735,1.002c-1.308-0.755-1.756-2.428-1.002-3.736
						c2.468-4.272,5.596-6.799,9.301-7.511c5.423-1.041,9.854,2.395,10.039,2.541c1.186,0.936,1.389,2.655,0.453,3.841
						C2668.418,866.186,2668.019,866.472,2667.582,866.643z"/>
				</g>
				<g>
					<path style="fill:#201D40;" d="M2720.339,864.719c0.868,0.339,1.89,0.225,2.679-0.39c0.076-0.059,2.752-2.048,5.673-1.466
						c2.058,0.411,3.929,2.048,5.554,4.866c0.756,1.308,2.428,1.757,3.736,1.002c1.307-0.754,1.756-2.427,1.001-3.734
						c-2.467-4.274-5.595-6.8-9.3-7.511c-5.424-1.041-9.854,2.393-10.039,2.541c-1.186,0.935-1.389,2.654-0.453,3.84
						C2719.502,864.262,2719.9,864.548,2720.339,864.719z"/>
				</g>
				<path style="fill:#201D40;" d="M2766.234,913.627c-19.723-23.127-5.744-62.276-5.744-62.276
					c-11.268-1.158-15.195,3.079-15.195,3.079c-7.219-11.808-3.396-21.126-3.396-21.126c-23.705-6.72-33.666,9.166-53.806,16.126
					c-27.581,9.53-63.53,1.606-70.097-32.547c-0.949-4.942,4.229-8.698,8.66-6.31c4.111,2.215,9.441,3.814,15.809,3.023
					c0,0-6.553-6.105-7.74-15.307c-0.654-5.075,5.051-8.394,9.277-5.51c6.336,4.323,17.67,7.897,36.735,2.4
					c12.69-3.657,40.288-27.185,59.103-24.909c15.381,1.863,28.561,13.541,35.462,31.397c0,0,37.396,0.293,45.009,40.688
					c7.479,39.686-54.027,88.627-54.027,88.627S2771.307,920.568,2766.234,913.627z"/>
				<path style="fill:#FFFFFF;" d="M2674.221,932.639c-1.109-1.478,0.066-3.559,1.902-3.351c4.667,0.526,12.383,1.236,19.742,1.189
					c7.359-0.047,15.065-0.856,19.726-1.443c1.833-0.229,3.036,1.836,1.944,3.327c-3.354,4.586-10.302,11.559-21.583,11.63
					C2684.671,944.063,2677.634,937.182,2674.221,932.639z"/>
				<g>
					<g>
						<path d="M2724.186,907.094c-12.471,0-22.617-8.858-22.617-19.747c0-10.887,10.146-19.746,22.617-19.746
							s22.617,8.859,22.617,19.746C2746.803,898.236,2736.656,907.094,2724.186,907.094z M2724.186,872.656
							c-9.684,0-17.563,6.589-17.563,14.691c0,8.101,7.879,14.692,17.563,14.692s17.563-6.591,17.563-14.692
							C2741.748,879.246,2733.869,872.656,2724.186,872.656z"/>
					</g>
					<g>
						<path d="M2665.561,905.696c-11.557,0-20.959-8.209-20.959-18.299c0-10.09,9.402-18.298,20.959-18.298
							s20.959,8.208,20.959,18.298C2686.52,897.487,2677.117,905.696,2665.561,905.696z M2665.561,873.782
							c-8.974,0-16.274,6.107-16.274,13.615c0,7.508,7.301,13.615,16.274,13.615c8.973,0,16.274-6.108,16.274-13.615
							C2681.835,879.89,2674.533,873.782,2665.561,873.782z"/>
					</g>
					<g>
						<path d="M2701.938,890.5c-8.327-3.591-16.633-1.044-16.716-1.018l-2.104-6.537c0.436-0.141,10.773-3.395,21.539,1.248
							L2701.938,890.5z"/>
					</g>
					<g>
						<polygon points="2742.609,889.346 2742.574,882.466 2765.107,883.071 2765.145,889.951 						"/>
					</g>
				</g>
				<g>
					<path style="fill:#F37A50;" d="M2762.904,881.991c-9.273,6.495-12.482,17.911-7.167,25.501
						c5.315,7.588,17.142,8.475,26.415,1.979c9.272-6.493,12.481-17.911,7.166-25.499
						C2784.003,876.383,2772.178,875.496,2762.904,881.991z"/>
					<g>
						<path style="fill:#DE623C;" d="M2766.795,905.922c-0.324-0.183-0.612-0.442-0.836-0.771c-3.197-4.731-3.262-9.87-0.173-13.746
							c3.163-3.969,8.747-5.578,13.276-3.824c1.276,0.495,1.91,1.928,1.416,3.203c-0.494,1.274-1.928,1.907-3.202,1.414
							c-2.482-0.961-5.828,0.046-7.618,2.292c-1.721,2.158-1.577,4.959,0.403,7.888c0.766,1.134,0.468,2.671-0.665,3.438
							C2768.594,906.357,2767.586,906.366,2766.795,905.922z"/>
					</g>
				</g>
			</g>
			<polygon style="fill:#95A6DB;" points="2673.732,986.7 2718.809,978.1 2763.984,986.159 2719.289,1041.924 			"/>
			<path style="fill:#3F964F;" d="M2772.01,999.971l-109.73,9.461l0,0l-42.395,3.046l5.345,251.09l-5.163,78.493
				c58.724,13.481,152.901,3.83,214.641-10.781l-10.316-86.775l13.717-227.65L2772.01,999.971z"/>
			<path style="fill:#F37A50;" d="M2689.482,1012.478c19.991,13.443,43.469,14.768,64.584,0V946.99l-64.584,1.083V1012.478z"/>
			<path style="fill:#FFFFFF;" d="M2719.074,1022.455c0,0-15.291,18.711-30.438,24.574l-30.35-39.835l15.445-20.494
				L2719.074,1022.455z"/>
			<path style="fill:#FFFFFF;" d="M2719.074,1022.455c0,0,11.234,15.652,30.73,24.208l30.844-44.485l-16.664-16.019
				L2719.074,1022.455z"/>
			<g id="c_40_">
				<path style="fill:#F37A50;" d="M2870.943,1291.957l-21.279,15.242c0,0-9.165-13.371-19.172-11.369l2.369,19.921
					c0,0-0.111,13.735-30.951,16.251c-25.209,9.808-5.117,19.482-11.604,25.51c-9.572,8.892,22.984,22.406,47.016,10.92
					c31.094-14.861,30.67-27.829,30.67-27.829l17.021-20.946L2870.943,1291.957z"/>
			</g>
			<path style="fill:#3F964F;" d="M2838.107,1016.854c0,0,103.021,53.625,151.499,169.504
				c-30.311,42.668-70.548,18.367-70.548,18.367l-88.406-90.062L2838.107,1016.854z"/>
			<path style="fill:#3F964F;" d="M2854.877,1296.502l64.182-91.777c0,0,13.508-36.226,70.548-18.367
				c3.963,30.109-4.417,75.517-101.948,145.953C2880.488,1315.654,2854.877,1296.502,2854.877,1296.502z"/>
			<path style="fill:#3F964F;" d="M2619.885,1012.478c0,0-102.881,53.455-151.525,169.265
				c30.248,42.713,70.521,18.469,70.521,18.469l88.535-89.934L2619.885,1012.478z"/>
		</g>
		<g>
			<path style="fill:#201D40;" d="M1969.149,1007.376c30.571-0.287,137.58,166.355,137.58,166.355l19.481,195.501l-49.861,1.959
				l-46.375-170.818l-48.382-25.512L1969.149,1007.376z"/>
			<g id="c_37_">
				<path style="fill:#F37A50;" d="M1728.392,1327.063l-0.602,26.168c0,0,18.675-0.557,19.327,12.199l-17.537,0.544
					c0,0-10.672,13.785,4.626,40.68c6.099,26.35-13.211,15.203-14.536,23.957c-1.955,12.918-27.459-9.229-31.51-35.551
					c-5.242-34.061,1.711-38.152,1.711-38.152l7.713-25.861L1728.392,1327.063z"/>
			</g>
			<path style="fill:#201D40;" d="M1753.604,1029.013c-29.855,6.585-84.791,183.779-84.791,183.779l16.481,135.508l49.591-5.55
				l-2.979-105.654l37.158-100.148L1753.604,1029.013z"/>
			<path d="M1818.681,1884.845c-26.953,35.952-93.144,13.892-90.953,62.519c100.656-0.625,142.489,0,142.489,0
				c-0.133-11.169-2.123-37.679-4.444-48.056L1818.681,1884.845z"/>
			<path d="M1969.279,1885.788c-26.952,35.951-93.144,13.892-90.952,62.517c100.656-0.624,142.489,0,142.489,0
				c-0.133-11.168-2.123-37.676-4.444-48.053L1969.279,1885.788z"/>
			<path style="fill:#201D40;" d="M1760.794,1334.477c0,0-16.158,231.615-9.519,282.844c6.64,51.229,41.253,117.221,38.59,286.667
				c32.813,7.941,80.352,0,80.352,0s7.048-191.599-27.64-277.177c14.104-83.127,59.366-273.521,59.366-273.521L1760.794,1334.477z"
				/>
			<path style="fill:#2C2858;" d="M1860.62,1342.589c0,0,6.571,258.384,22.726,307.448c16.153,49.066,42.476,81.397,71.721,248.322
				c33.721,1.631,82.276,2.326,82.276,2.326s-23.83-210.414-76.348-258.565c-1.777-84.296,15.795-298.178,15.795-298.178
				L1860.62,1342.589z"/>
			<polygon style="fill:#95A6DB;" points="1815.494,1000.79 1860.406,991.389 1905.716,998.643 1862.024,1055.189 			"/>
			<path style="fill:#F37A50;" d="M1827.813,1030.814c20.226,13.084,47.418,13.34,68.267-1.802l-0.976-69.354l-64.551,2.232
				L1827.813,1030.814z"/>
			<path style="fill:#95A6DB;" d="M1920.136,1021.641L1920.136,1021.641l-14.059-3.794l-0.36-19.206l-33.907,34.214l-10.348,2.874
				l-10.473-2.379l-35.495-32.561l0.554,19.201l-11.6,3.729l0,0l-42.019,11.801l21.923,238.172l-7.696,82.754
				c58.95,12.434,123.006,9.926,184.472-5.782l-11.326-80.909l17.951-237.245L1920.136,1021.641z"/>
			<polygon style="fill:#2C2858;" points="1850.741,1060.395 1837.188,1244.455 1853.612,1264.068 1871.947,1247.715 
				1864.884,1060.875 			"/>
			<polygon style="fill:#2C2858;" points="1839.648,1037.852 1856.517,1034.239 1875.232,1038.209 1864.897,1061.238 
				1850.695,1061.008 			"/>
			<g>
				<path style="fill:#2C2858;" d="M1811.77,1009.326l1.515,207.936l4.424,146.379c0,0-41.862,14.938-73.094-8.674l8.43-325.954
					L1811.77,1009.326z"/>
				<polygon style="fill:#494C7F;" points="1812.794,1007.131 1813.721,1231.693 1780.712,1057.446 				"/>
			</g>
			<g>
				<path style="fill:#2C2858;" d="M1906.96,1000.698l-10.88,368.638c0,0,75.779,13.279,106.709-7.164l-16.766-116.49
					l-14.906-238.283L1906.96,1000.698z"/>
				<polygon style="fill:#494C7F;" points="1906.229,999.979 1900.325,1225.505 1939.565,1047.971 				"/>
			</g>
			<g id="c_36_">
				<path style="fill:#F37A50;" d="M2070.604,1351.891l0.602,26.168c0,0-18.674-0.557-19.326,12.199l17.536,0.543
					c0,0,10.672,13.785-4.625,40.681c-6.101,26.35,13.211,15.202,14.535,23.958c1.955,12.918,27.459-9.23,31.511-35.553
					c5.241-34.059-1.711-38.15-1.711-38.15l-7.714-25.863L2070.604,1351.891z"/>
			</g>
			<g>
				<g>
					<g>
						<path style="fill:#F37A50;" d="M1917.274,910.257c-10.233,47.042-48.48,78.662-85.428,70.624
							c-36.946-8.037-58.601-52.688-48.368-99.729c10.233-47.043,48.48-78.662,85.427-70.624
							C1905.853,818.565,1927.508,863.216,1917.274,910.257z"/>
						<path d="M1805.826,899.125c-3.751,1.123-7.701-1.007-8.824-4.758c-1.123-3.752,1.008-7.702,4.758-8.825
							c3.751-1.122,7.702,1.008,8.824,4.76C1811.708,894.051,1809.577,898.003,1805.826,899.125z"/>
						<path d="M1863.706,897.129c-1.866,3.461-6.184,4.753-9.644,2.887c-3.46-1.867-4.753-6.184-2.887-9.643
							c1.865-3.461,6.184-4.754,9.643-2.887C1864.279,889.351,1865.572,893.669,1863.706,897.129z"/>
						<path style="fill:#DE623C;" d="M1818.086,893.711c-5.078,11.56-11.587,25.71-11.587,25.71s5.506,10.609,20.27,8.618
							c-6.616-1.671-13.397-4.969-12.066-13.658C1816.033,905.693,1818.086,893.711,1818.086,893.711z"/>
						<g>
							<path style="fill:#2C2858;" d="M1871.436,886.353c-1.357,0.6-2.997,0.216-3.936-1.017c-0.221-0.286-5.691-7.216-12.408-4.288
								c-1.661,0.725-3.595-0.034-4.318-1.696c-0.725-1.661,0.046-3.6,1.696-4.319c9.173-3.998,17.259,2.393,20.255,6.332
								c1.097,1.442,0.816,3.5-0.627,4.597C1871.889,886.121,1871.666,886.252,1871.436,886.353z"/>
						</g>
						<g>
							<path style="fill:#2C2858;" d="M1791.296,886.353c1.358,0.6,2.998,0.216,3.936-1.017c0.221-0.286,5.69-7.216,12.408-4.288
								c1.661,0.725,3.595-0.034,4.319-1.696c0.725-1.661-0.047-3.6-1.696-4.319c-9.173-3.998-17.26,2.393-20.255,6.332
								c-1.097,1.442-0.816,3.5,0.626,4.597C1790.843,886.121,1791.065,886.252,1791.296,886.353z"/>
						</g>
						<path style="fill:#2C2858;" d="M1910.017,912.178c-1.965-17.367-16.675-11.969-20.878-34.691
							c-4.204-22.72-8.35-39.846-29.652-33.609c-21.304,6.235-27.085,1.695-36.442-2.458
							c-28.133-12.483-38.545,35.443-38.545,35.443s-20.351-38.502,0.687-59.55c23.321-23.332,30.203-7.313,51.916-24.272
							c21.715-16.959,56.375-11.086,64.805,2.39c8.886,14.206,11.379,24.812,32.906,33.04c21.527,8.229,33.672,24.604,17.164,48.49
							c-16.508,23.888,16.524,36.13-13.05,59.784c-11.472,9.175-32.609,13.417-36.515,9.356
							C1897.186,940.663,1911.283,923.373,1910.017,912.178z"/>
						<path style="fill:#2C2858;" d="M1780.973,906.934c0,0,3.576,23.375,8.807,30.5c1.78-10.949,12.117-1.783,20.007-2.3
							c19.065-1.249,51.341-14.127,60.22,13.072c24.133,2.656,36.773-49.216,36.773-49.216
							c12.133,54.023-22.511,91.813-81.479,94.185C1786.452,994.738,1771.965,945.425,1780.973,906.934z"/>
						<path style="fill:#FFFFFF;" d="M1803.084,950.438c-1.136-1.457,0.003-3.559,1.842-3.384
							c4.676,0.444,12.402,1.016,19.759,0.838c7.358-0.179,15.047-1.124,19.696-1.793c1.828-0.264,3.066,1.78,2.003,3.291
							c-3.271,4.645-10.095,11.737-21.371,12.012C1813.734,961.675,1806.577,954.92,1803.084,950.438z"/>
						<g>
							<path style="fill:#F37A50;" d="M1902.632,900.379c-7.976,8.569-8.756,20.807-1.743,27.333
								c7.013,6.527,19.163,4.871,27.139-3.699c7.976-8.567,8.756-20.807,1.743-27.333
								C1922.758,890.154,1910.607,891.809,1902.632,900.379z"/>
							<g>
								<path style="fill:#DE623C;" d="M1911.731,923.738c-0.368-0.115-0.715-0.314-1.012-0.6
									c-4.255-4.094-5.429-9.276-3.142-13.863c2.342-4.697,7.642-7.528,12.601-6.732c1.396,0.225,2.346,1.537,2.122,2.933
									c-0.225,1.395-1.537,2.345-2.933,2.122c-2.718-0.436-5.884,1.305-7.209,3.961c-1.273,2.553-0.523,5.356,2.11,7.891
									c1.019,0.98,1.05,2.6,0.069,3.619C1913.644,923.791,1912.627,924.017,1911.731,923.738z"/>
							</g>
						</g>
					</g>
				</g>
			</g>
			<polygon style="fill:#FFFFFF;" points="1856.517,1034.239 1889.104,1063.221 1914.317,1011.623 1905.716,998.643 			"/>
			<polygon style="fill:#FFFFFF;" points="1856.517,1034.239 1831.468,1060.84 1807.885,1014.834 1815.494,1000.79 			"/>
		</g>
		<g>
			<g>
				<path style="fill:#F37A50;" d="M1534.411,1849.131c2.614-26.083-10.842-224.574-10.842-224.574
					c-38.057-174.502-23.108-299.416-23.108-299.416l65.411,4.596l25.779,98.608l-12.227,164.681c0,0,4.591,12.676,7.013,22.814
					c13.133,54.971,0.052,120.666-8.036,164.455c-3.747,20.291-9.576,62.936-9.729,72.629l16.434,21.243
					c0,0-59.473,65.821-68.622,66.233c-17.783,0.804-12.544-16.809-12.544-16.809
					C1528.383,1898.49,1533.662,1856.6,1534.411,1849.131z"/>
				<path style="fill:#E62552;" d="M1586.122,1897.49l-3.272,42.289l-7.601,0.343l-3.845-39.271
					c-20.233,5.163-34.728,41.878-34.728,41.878c-13.935,4.998-49.358,8.426-61.965,1.932c-3.044-12.356,29.28-21.018,29.28-21.018
					c2.921,3.458,20.176,6.108,26.304,2.403c22.563-19.211,33.565-47.145,38.375-73.121
					C1568.671,1852.924,1604.324,1855.41,1586.122,1897.49z"/>
			</g>
			<g>
				<path style="fill:#F37A50;" d="M1556.53,1337.834l92.148-12.693c35.25,79.752,46.741,218.609,56.31,268.074
					c38.41,64.405,50.607,259.709,50.607,259.709l16.434,21.243c0,0-59.473,65.821-68.622,66.233
					c-17.783,0.804-12.544-16.809-12.544-16.809c24.445-25.101,29.21-58.453,30.793-65.79
					c2.379-11.028-74.585-227.692-74.585-227.692l-8.216-20.559c-94.005-155.264-109.431-272.641-109.431-272.641L1556.53,1337.834z
					"/>
				<path style="fill:#E62552;" d="M1773.046,1897.49l-3.272,42.289l-7.601,0.343l-3.845-39.271
					c-20.232,5.163-34.727,41.878-34.727,41.878c-13.935,4.998-49.358,8.426-61.966,1.932
					c-3.044-12.356,29.281-21.018,29.281-21.018c2.92,3.458,20.175,6.108,26.303,2.403c22.563-19.211,33.566-47.145,38.375-73.121
					C1755.595,1852.924,1791.248,1855.41,1773.046,1897.49z"/>
			</g>
			<path d="M1522.746,1111.592c-30.002-10.451-93.755-42.642-63.552-86.051c30.202-43.406,43.034-25.219,31.42-77.414
				c-11.615-52.195,25.131-93.758,60.708-83.733c35.577,10.025,44.943,38.624,88.333,30.882
				c43.389-7.742,79.968,32.519,63.992,67.953c-15.976,35.435-22.778,52.488-7.264,71.836c15.515,19.349,84.686,39.611,56.445,86.68
				c-28.24,47.068-41.45,44.345-31.199,68.2c10.251,23.854-12.485,51.392-52.494,48.107c-40.009-3.288-76.354-18.002-91.502-62.467
				C1562.485,1131.121,1522.746,1111.592,1522.746,1111.592z"/>
			<path style="fill:#C4204A;" d="M1530.705,1097.926c-13.574,1.404-29.642,8.305-35.483,24.451
				c-5.842,16.147-2.122,58.356-2.122,58.356L1530.705,1097.926z"/>
			<path style="fill:#F37A50;" d="M1605.848,1054.358l-0.447,59.106c0,0-28.681,17.451-51.325,3.517
				c3.484-17.419,8.55-57.146,8.55-57.146L1605.848,1054.358z"/>
			<g>
				<path style="fill:#F37A50;" d="M1523.601,985.743c0,43.916,26.483,79.518,59.152,79.518c32.67,0,59.153-35.602,59.153-79.518
					c0-43.915-26.483-79.516-59.153-79.516C1550.084,906.227,1523.601,941.828,1523.601,985.743z"/>
				<path d="M1645.84,985.743c-32.654-4.174-63.015-22.371-80.163-45.884c-11.078,27.482-42.076,45.884-42.076,45.884
					s-23.229-52.57,19.02-80.93C1582.925,877.76,1679.089,896.246,1645.84,985.743z"/>
				<path d="M1607.638,1002.711c3.472,0,6.286-2.816,6.286-6.288c0-3.471-2.815-6.287-6.286-6.287c-3.472,0-6.287,2.815-6.287,6.287
					C1601.351,999.895,1604.166,1002.711,1607.638,1002.711z"/>
				<path d="M1557.535,1002.711c3.472,0,6.286-2.816,6.286-6.288c0-3.471-2.814-6.287-6.286-6.287c-3.473,0-6.287,2.815-6.287,6.287
					C1551.248,999.895,1554.063,1002.711,1557.535,1002.711z"/>
				<g>
					<path d="M1546.458,990.76c1.031,0,2.036-0.528,2.6-1.48c1.553-2.618,3.434-4.188,5.59-4.664
						c3.727-0.825,7.418,1.662,7.455,1.687c1.371,0.938,3.249,0.598,4.194-0.768c0.945-1.366,0.617-3.234-0.744-4.187
						c-0.234-0.164-5.817-4.007-12.142-2.644c-3.882,0.837-7.095,3.359-9.547,7.496c-0.851,1.434-0.378,3.286,1.057,4.138
						C1545.404,990.624,1545.934,990.76,1546.458,990.76z"/>
				</g>
				<g>
					<path d="M1619.563,991.065c0.662,0,1.329-0.216,1.887-0.663c1.301-1.042,1.511-2.942,0.468-4.244
						c-3.968-4.953-8.36-7.65-13.055-8.014c-6.057-0.47-10.22,3.266-10.394,3.425c-1.231,1.125-1.316,3.036-0.191,4.266
						c1.12,1.224,3.017,1.315,4.247,0.208c0.088-0.076,2.564-2.168,5.948-1.872c2.938,0.257,5.876,2.195,8.732,5.763
						C1617.802,990.678,1618.679,991.065,1619.563,991.065z"/>
				</g>
				<path style="fill:#DE623C;" d="M1576.517,1004.677c-8.131,5.862-10.667,8.269-13.805,10.224
					c2.168,7.259,13.553,10.864,16.791,10.027c-7.931-3.91-9.047-9.205-9.047-9.205L1576.517,1004.677z"/>
				<path style="fill:#F37A50;" d="M1633.069,991.879c-6.778,8.584-7.115,19.617-0.753,24.64c6.362,5.023,17.015,2.137,23.793-6.448
					c6.779-8.585,7.116-19.617,0.754-24.64C1650.501,980.407,1639.848,983.294,1633.069,991.879z"/>
				<g>
					<path style="fill:#DE623C;" d="M1639.019,1010.425c0.261,0,0.526-0.052,0.781-0.158c1.024-0.433,1.504-1.614,1.072-2.638
						c-1.438-3.403-1.47-6.141-0.097-8.137c2.119-3.083,7.122-4.035,10.755-3.914c1.11,0.039,2.042-0.833,2.079-1.944
						c0.037-1.112-0.834-2.042-1.944-2.079c-4.877-0.162-11.17,1.238-14.208,5.655c-1.513,2.202-2.792,6.067-0.294,11.983
						C1637.487,1009.963,1638.233,1010.425,1639.019,1010.425z"/>
				</g>
				<path style="fill:#FFFFFF;" d="M1598.446,1035.663c0.843-1.378-0.354-3.089-1.933-2.757c-4.015,0.847-10.666,2.107-17.071,2.678
					c-6.404,0.572-13.173,0.512-17.275,0.389c-1.614-0.048-2.487,1.85-1.415,3.055c3.299,3.709,9.923,9.194,19.739,8.318
					C1590.309,1046.469,1595.857,1039.897,1598.446,1035.663z"/>
			</g>
			<path style="fill:#C4204A;" d="M1658.011,1094.866c0,0,76.628,34.001,119.446,123.009
				c-25.006,35.203-51.984,14.266-51.984,14.266l-71.382-55.756c0,0-18.152-32.862-15.815-50.188
				C1641.754,1100.452,1658.011,1094.866,1658.011,1094.866z"/>
			<g>
				<g>
					<g>
						<g>
							<path style="fill:#070635;" d="M1644.832,1586.121c24.654-4.459,48.307-4.434,62.178-4.129
								c-8.776-29.367-3.779-212.541-59.418-274.882l-142.494,1.888c-49.568,85.057-23.313,214.539-53.944,266.165
								c11.966,5.782,37.959,16.816,81.883,21.248C1581.608,1601.313,1603.166,1593.656,1644.832,1586.121z"/>
						</g>
					</g>
				</g>
			</g>
			<g>
				<g>
					<g>
						<path style="fill:#F5A3B7;" d="M1506.339,1271.788c0-29.108-25.227-72.716-13.135-102.101
							c8.808-23.638,24.235-66.256,42.255-72.877c8.502-3.124,12.678-5.514,23.271-8.443c0,0,0.554,22.522,13.007,23.521
							c23.971,1.922,33.894-28.908,33.894-28.908c12.925-1.236,60.673,12.315,60.644,17.184
							c-0.14,38.129-16.908,99.787-27.039,141.01c-1.878,20.992-0.392,37.274,1.71,49.153c3.839,12.38,10.48,18.752,10.511,21.429
							c0,0-90.807,30.904-147.339-0.219C1504.117,1311.537,1506.339,1291.446,1506.339,1271.788z"/>
					</g>
				</g>
			</g>
			<path style="fill:#E62552;" d="M1616.2,1083.766c0,0-28.031,104.535-28.031,148.734c0,50.227,25.755,134.902,25.755,134.902
				l63.026-2.463c0,0-7.716-35.281-26.942-66.643c-19.854-32.383,1.942-101.45,6.75-119.83c4.806-18.38,12.619-77.635,12.619-77.635
				S1643.136,1083.605,1616.2,1083.766z"/>
			<path style="fill:#E62552;" d="M1549.413,1091.334c-6.269,13.306-30.496,67.836-28.989,100.985
				c1.507,33.148,4.591,146.989-4.485,177.966c-22.637-0.668-32.975-7.498-32.975-7.498c-3.222-8.739,30.696-58.873,21.559-97.834
				c-9.139-38.962-17.111-66.722-14.599-82.679c2.816-17.892,16.675-63.255,40.782-84.349
				C1539.215,1094.156,1549.413,1091.334,1549.413,1091.334z"/>
			<g id="c_35_">
				<path style="fill:#F37A50;" d="M1666.378,1299.176l-4.053,1.688c0,0-8.233-11.107-16.642-10.689l5.142,10.824
					c0,0-9.668,15.91-35.141,14.225c-21.761,4.946-6.538,15.277-12.563,19.41c-8.889,6.096,16.04,21.07,37.043,14.611
					c27.177-8.355,44.833-34.019,44.833-34.019L1666.378,1299.176z"/>
			</g>
			<path style="fill:#C4204A;" d="M1666.378,1299.176l57.694-72.846c0,0,12.156-23.248,53.385-8.455
				c1.996,22.168-21.711,52.363-95.247,101.004L1666.378,1299.176z"/>
		</g>
		<g>
			<g>
				<path style="fill:#201D40;" d="M2482.512,883.634c-51.286-14.472-153.727,27.003-123.916,213.541
					c29.811,186.539,163.938,160.652,163.938,160.652s61.552-19.349,67.077-137.856
					C2595.136,1001.461,2568.762,907.971,2482.512,883.634z"/>
				<g>
					<g>
						<path style="fill:#7890DB;" d="M2419.781,1142.192c-10.92,31.451-51.891,92.963-66.525,104.248
							c-9.743-13.881-45.707-6.959-45.707-6.959s35.964-87.15,68.44-129.385C2391.137,1081.654,2437.709,1090.877,2419.781,1142.192
							z"/>
						<path style="fill:#F37A50;" d="M2307.549,1239.48c6.982,38.324,53.313,88.15,53.313,88.15s5.209-2.999,6.341-25.588
							c-5.745-15.469-13.946-55.604-13.946-55.604S2335.018,1226.838,2307.549,1239.48z"/>
					</g>
				</g>
				<g>
					<g>
						<g>
							<path style="fill:#F37A50;" d="M2437.969,1053.061l38.227-5.727l-3.044,35.484c0,0-19.36,34.887-37.729,28.879
								s-9.41-21.42-9.41-21.42L2437.969,1053.061z"/>
						</g>
					</g>
				</g>
				<g>
					<path style="fill:#F37A50;" d="M2506.778,995.49c-6.212,41.924-37.94,71.953-70.868,67.074
						c-32.926-4.879-54.582-42.82-48.369-84.744c6.211-41.923,37.941-71.954,70.867-67.074
						C2491.334,915.627,2512.99,953.567,2506.778,995.49z"/>
					<g>
						<path style="fill:#201D40;" d="M2470.992,984.18c-0.458-0.135-0.875-0.421-1.169-0.843c-4.269-6.128-12.854-5.955-12.94-5.953
							c-1.199,0.034-2.205-0.909-2.242-2.111c-0.037-1.2,0.9-2.204,2.1-2.246c0.449-0.015,11.02-0.28,16.66,7.818
							c0.688,0.987,0.444,2.345-0.543,3.034C2472.292,984.273,2471.605,984.362,2470.992,984.18z"/>
					</g>
					<g>
						<path style="fill:#201D40;" d="M2397.557,982.964c-0.218-0.085-0.425-0.208-0.613-0.368c-0.918-0.778-1.029-2.154-0.252-3.071
							c6.045-7.126,14.445-5.132,14.8-5.044c1.165,0.29,1.88,1.474,1.587,2.641c-0.289,1.165-1.466,1.874-2.631,1.59
							c-0.275-0.065-6.181-1.38-10.433,3.631C2399.396,983.074,2398.399,983.294,2397.557,982.964z"/>
					</g>
					<path style="fill:#DE623C;" d="M2427.959,1000.709c-2.74,3.367-5.104,6.795-7.821,8.863c-0.917,0.695-1.113,2.014-0.462,2.963
						c2.688,3.918,9.775,6.713,14.092,8.115c0.631,0.204,1.059-0.635,0.523-1.027c-4.524-3.314-6.568-5.866-7.457-7.289
						c-0.441-0.707-0.509-1.578-0.199-2.352c0.711-1.777,2.121-5.399,3.027-8.374
						C2429.975,1000.58,2428.637,999.878,2427.959,1000.709z"/>
					<path style="fill:#FFFFFF;" d="M2455.551,1032.374c0.836-1.282-0.25-2.939-1.758-2.667c-3.831,0.692-10.174,1.701-16.264,2.067
						c-6.09,0.364-12.508,0.118-16.395-0.11c-1.529-0.09-2.41,1.685-1.426,2.858c3.025,3.609,9.156,8.993,18.49,8.435
						C2447.534,1042.397,2452.978,1036.319,2455.551,1032.374z"/>
					<path style="fill:#201D40;" d="M2520.18,991.652c-38.943-1.763-90.161-37.706-96.352-57.44
						c5.314-24.831,24.892-38.862,48.276-29.637C2495.488,913.799,2533.803,959.794,2520.18,991.652z"/>
					<path style="fill:#201D40;" d="M2432.723,944.19c0,0-23.175,23.555-46.644,28.937c8.214-27.475,14.081-48.303,28.163-55.05
						c14.08-6.747,29.628-7.92,29.628-7.92L2432.723,944.19z"/>
					<g>
						<path style="fill:#F37A50;" d="M2497.675,988.979c-7.298,6.787-8.712,17.13-3.157,23.103
							c5.553,5.973,15.973,5.313,23.27-1.475c7.299-6.785,8.713-17.13,3.158-23.102
							C2515.391,981.534,2504.973,982.194,2497.675,988.979z"/>
						<g>
							<path style="fill:#DE623C;" d="M2503.968,1009.373c-0.306-0.119-0.588-0.311-0.822-0.57c-3.36-3.738-4.04-8.211-1.816-11.965
								c2.277-3.843,6.95-5.923,11.113-4.943c1.171,0.277,1.897,1.45,1.621,2.62c-0.276,1.172-1.449,1.898-2.62,1.622
								c-2.281-0.537-5.076,0.747-6.365,2.922c-1.238,2.089-0.773,4.515,1.308,6.83c0.806,0.895,0.732,2.272-0.163,3.076
								C2505.588,1009.536,2504.711,1009.665,2503.968,1009.373z"/>
						</g>
					</g>
					<path d="M2466.807,990.591c0,3.696-2.996,6.692-6.692,6.692s-6.691-2.996-6.691-6.692c0-3.695,2.995-6.691,6.691-6.691
						S2466.807,986.896,2466.807,990.591z"/>
					<path d="M2418.043,990.591c0,3.696-2.996,6.692-6.691,6.692c-3.696,0-6.692-2.996-6.692-6.692c0-3.695,2.996-6.691,6.692-6.691
						C2415.047,983.9,2418.043,986.896,2418.043,990.591z"/>
				</g>
				<g>
					<path style="fill:#F37A50;" d="M2402.179,1856.527c2.56-25.529-10.612-219.832-10.612-219.832
						c-37.254-170.816-22.621-293.092-22.621-293.092l64.029,4.499l25.236,96.526l-11.97,161.202c0,0,4.493,12.409,6.864,22.332
						c12.855,53.811,0.051,118.118-7.866,160.983c-3.669,19.863-9.374,61.608-9.524,71.095l16.087,20.796
						c0,0-58.218,64.431-67.174,64.835c-17.407,0.785-12.278-16.455-12.278-16.455
						C2396.277,1904.845,2401.445,1863.84,2402.179,1856.527z"/>
					<path style="fill:#C4204A;" d="M2452.797,1903.865l-3.203,41.396l-7.439,0.336l-3.764-38.443
						c-19.805,5.055-33.994,40.994-33.994,40.994c-13.641,4.893-48.316,8.249-60.656,1.891
						c-2.98-12.094,28.662-20.573,28.662-20.573c2.859,3.386,19.75,5.979,25.748,2.352c22.086-18.807,32.857-46.148,37.564-71.578
						C2435.715,1860.24,2470.615,1862.674,2452.797,1903.865z"/>
				</g>
				<g>
					<path style="fill:#F37A50;" d="M2423.83,1356.027l90.202-12.424c34.505,78.068,45.754,213.993,55.12,262.413
						c37.6,63.045,49.539,254.224,49.539,254.224l16.087,20.796c0,0-58.218,64.431-67.174,64.835
						c-17.407,0.785-12.278-16.455-12.278-16.455c23.928-24.571,28.592-57.217,30.143-64.4
						c2.328-10.796-73.01-222.885-73.01-222.885l-8.043-20.123c-92.02-151.984-107.119-266.884-107.119-266.884L2423.83,1356.027z"
						/>
					<path style="fill:#C4204A;" d="M2635.773,1903.865l-3.203,41.396l-7.439,0.336l-3.764-38.443
						c-19.805,5.055-33.994,40.994-33.994,40.994c-13.641,4.893-48.316,8.249-60.656,1.891
						c-2.98-12.094,28.662-20.573,28.662-20.573c2.858,3.386,19.75,5.979,25.748,2.352c22.086-18.807,32.857-46.148,37.564-71.578
						C2618.691,1860.24,2653.592,1862.674,2635.773,1903.865z"/>
				</g>
				<g>
					<g>
						<g>
							<g>
								<path style="fill:#070635;" d="M2591.531,1597.149c-9.01-30.139-5.089-245.87-84.613-304.531l-136.849,14.419
									c-31.624,51.189-20.022,184.384-9.374,294.001C2425.037,1624.002,2476.195,1633.221,2591.531,1597.149z"/>
							</g>
						</g>
					</g>
				</g>
				<g>
					<g>
						<g>
							<path style="fill:#95A6DB;" d="M2368.4,1273.27c0-29.97-25.974-74.867-13.523-105.121
								c9.068-24.336,24.953-68.216,43.504-75.031c8.754-3.217,17.016-2.431,27.923-5.447c0,0-3.392,19.941,9.429,20.971
								c24.68,1.979,37.651-29.661,37.651-29.661c13.306-1.272,59.712,12.577,59.684,17.589
								c-0.145,39.258-17.409,102.738-27.839,145.182c-1.936,21.611-0.404,38.375,1.761,50.605
								c3.95,12.748,8.776,20.047,8.808,22.804c0,0-91.479,31.077-149.684-0.965C2366.113,1314.194,2368.4,1293.51,2368.4,1273.27z"
								/>
						</g>
					</g>
				</g>
				<g id="c_34_">
					<path style="fill:#F37A50;" d="M2531.154,1301.752l-7.797,3.116c0,0-8.127-12.923-16.368-12.513l4.106,12.344
						c0,0-4.66,14.432-29.627,12.779c-21.326,4.849-6.407,14.974-12.312,19.023c-8.712,5.976,15.72,20.65,36.306,14.322
						c26.636-8.191,43.941-33.344,43.941-33.344L2531.154,1301.752z"/>
				</g>
				<path style="fill:#F37A50;" d="M2531.154,1094.219c0,0,65.18,38.182,96.738,129.697c-28.346,31.425-52.228,7.975-52.228,7.975
					l-63.147-62.397c0,0-18.563-22.801-9.686-50.652C2510.564,1094.581,2531.154,1094.219,2531.154,1094.219z"/>
				<path style="fill:#F37A50;" d="M2531.154,1301.752l45.566-66.736c0,0,10.764-25.599,51.172-11.1
					c1.955,21.726-13.775,52.665-85.848,100.337C2537.391,1312.088,2531.154,1301.752,2531.154,1301.752z"/>
				<path style="fill:#FFFFFF;" d="M2435.732,1108.641c-2.2,10.267,3.766,22.576,20.967,16.805
					c20.601-6.913,30.224-45.582,30.224-45.582l-12.918-6.997C2474.005,1072.866,2464.197,1099.575,2435.732,1108.641z"/>
				<path style="fill:#FFFFFF;" d="M2435.732,1108.641c-2.543,5.288-17.031,18.85-23.898,10.771
					c-6.867-8.078,1.148-29.279,1.148-29.279l15.624-7.937C2428.606,1082.196,2422.481,1101.292,2435.732,1108.641z"/>
				<path style="fill:#7890DB;" d="M2531.154,1094.219c0,0,65.18,38.182,96.738,129.697c-28.346,31.425-54.688,5.544-54.688,5.544
					l-60.688-59.966c0,0-18.563-22.801-9.686-50.652C2510.564,1094.581,2531.154,1094.219,2531.154,1094.219z"/>
				<path id="c_33_" style="fill:#F37A50;" d="M2353.431,1332.834c0.466-0.32,0.978-0.527,1.503-0.685
					c-0.055-0.078-0.115-0.151-0.171-0.231c-3.231-4.695-3.116-10.381,0.253-12.695c0.553-0.381,1.162-0.636,1.805-0.793
					c-0.947-3.502-0.209-6.873,2.196-8.527c0.956-0.656,2.071-0.961,3.252-0.968c-1.173-3.437-0.351-7.081,2.343-8.931
					c3.37-2.317,8.338-0.943,11.096,3.064c2.757,4.008,2.261,9.136-1.109,11.451c-0.854,0.586-1.809,0.935-2.806,1.065
					c2.345,4.382,1.97,9.229-1.077,11.323c-0.553,0.38-1.162,0.635-1.805,0.793c0.945,3.502,0.209,6.874-2.196,8.527
					c-0.888,0.609-1.913,0.918-3.001,0.966c1.18,3.003,0.52,6.272-1.85,7.899c-2.846,1.957-7.041,0.799-9.369-2.588
					C2350.166,1339.121,2350.584,1334.79,2353.431,1332.834z"/>
			</g>
		</g>
		<g>
			<g>
				<path style="fill:#F37A50;" d="M2069.462,1901.275l-26.135,12.145l-13.26-27.656l-37.962-248.254
					c6.557-83.04,70.155-259.703,70.155-259.703l73.433,106.768l-83.353,167.955
					C2085.094,1686.051,2065.264,1789.186,2069.462,1901.275z"/>
				<path style="fill:#F37A50;" d="M2105.331,1383.66c0.656-5.13,82.593-12.469,82.593-12.469
					c15.518,64.766,16.741,169.472,4.502,240.971c17.922,61.879,9.315,207.326-0.658,281.512l-43.186-0.109
					c-2.84-40.076-0.721-171.282-36.073-281.402C2105.516,1570.801,2102.49,1411.234,2105.331,1383.66z"/>
			</g>
			<g>
				<path style="fill:#E62552;" d="M2046.879,1902.509c-5.358-15.067-16.812-16.745-16.812-16.745
					c-22.265,31.807-76.938,12.29-75.129,55.311c83.144-0.553,117.698,0,117.698,0c-0.108-9.881-1.753-33.334-3.67-42.514
					l-4.333,0.823L2046.879,1902.509z"/>
				<path style="fill:#FFFFFF;" d="M1961.479,1952.559h104.572c3.637,0,6.585-2.948,6.585-6.585v-6.084h-117.742v6.084
					C1954.895,1949.61,1957.843,1952.559,1961.479,1952.559z"/>
			</g>
			<g>
				<path style="fill:#E62552;" d="M2138.289,1941.491c0,0,6.674-26.671,7.264-30.097c0.668-3.898,2.631-13.107,3.029-17.83
					c0.099-1.162,11.561-8.67,20.311-8.654c11.854,0.021,22.656,7.375,22.875,8.764c1.398,8.9,1.441,19.365,3.708,28.031
					c1.686,6.449,6.266,21.472,6.266,21.472L2138.289,1941.491z"/>
				<g>
					<g>
						<g>
							<g>
								<path style="fill:#FFFFFF;" d="M2138.29,1939.418c1.557,5.295,20.747-0.813,34.753-0.809
									c11.757,0.004,26.971,4.883,28.699,2.984c2.939,5.561,0.519,17.088,0.519,17.088s-12.253,0.678-26.948,0
									c-14.697-0.679-31.68,0.324-38.078-1.709C2133.199,1949.742,2138.29,1939.418,2138.29,1939.418z"/>
							</g>
						</g>
					</g>
				</g>
			</g>
			<path d="M2003.184,949.348c-2.691-36.623,7.898-68.976,37.099-85.452c29.597-16.701,66.673-0.322,66.673-0.322l0,0
				c0.003,0,31.383-11.165,59.824,20.164c28.443,31.331,6.929,58.899,18.564,81.749c6.891,13.531,41.927,16.321,32.876,60.396
				c-2.61,12.711-17.897,21.266-30.847,22.116c-22.75,1.493-43.936-7.301-53.156,1.493c-30.39,28.983-97.733,18.5-107.158-8.008
				c-2.922-8.221-63.5,7.686-57.456-48.3C1972.664,964.815,2005.587,982.071,2003.184,949.348z"/>
			<g>
				<g>
					<g>
						<path style="fill:#F37A50;" d="M2070.848,1028.451l39.054-5.85l-3.112,36.25c0,0-11.561,33.873-34.598,34.525
							c-23.036,0.65-14.489-26.516-14.489-26.516L2070.848,1028.451z"/>
					</g>
				</g>
			</g>
			<g>
				<g>
					<g>
						<path style="fill:#3F964F;" d="M1999.779,1253.41c0-30.615-26.533-76.481-13.814-107.388
							c9.264-24.862,24.739-66.597,43.691-73.56c8.943-3.285,17.928-5.517,29.071-8.598c0,0-3.26,20.314,9.837,21.365
							c25.212,2.021,38.571-30.412,38.571-30.412c13.594-1.3,75.374,19.027,78.289,28.965c-0.147,40.104-35.21,94.07-45.866,137.43
							c-4.191,46.828,5.814,71.83,5.873,77.156c0,0-88.528,29.584-147.989-3.15
							C1997.442,1295.219,1999.779,1274.088,1999.779,1253.41z"/>
					</g>
				</g>
			</g>
			<g>
				<path style="fill:#F37A50;" d="M2142.925,976.002c-7.997,42.551-41.572,71.954-74.992,65.67
					c-33.419-6.281-54.027-45.867-46.028-88.417c7.997-42.55,41.572-71.952,74.991-65.67
					C2130.314,893.866,2150.922,933.451,2142.925,976.002z"/>
				<g>
					<path d="M2107.188,958.869c-0.476-0.106-0.92-0.369-1.249-0.78c-4.773-5.951-13.512-5.182-13.6-5.174
						c-1.221,0.118-2.313-0.774-2.433-1.995c-0.121-1.222,0.766-2.31,1.986-2.434c0.455-0.047,11.212-1.046,17.518,6.818
						c0.77,0.959,0.616,2.36-0.343,3.129C2108.519,958.875,2107.825,959.011,2107.188,958.869z"/>
				</g>
				<g>
					<path d="M2035.313,958.243c-0.229-0.068-0.45-0.175-0.655-0.321c-1-0.715-1.232-2.105-0.517-3.106
						c5.551-7.767,14.272-6.447,14.641-6.388c1.211,0.198,2.037,1.343,1.84,2.556c-0.197,1.209-1.336,2.033-2.544,1.841
						c-0.286-0.043-6.41-0.882-10.314,4.581C2037.193,958.2,2036.199,958.51,2035.313,958.243z"/>
				</g>
				<path style="fill:#DE623C;" d="M2062.494,976.059c-2.615,3.033-4.85,6.17-7.49,7.914c-0.89,0.589-1.038,1.876-0.353,2.893
					c2.83,4.197,10.013,7.78,14.379,9.664c0.637,0.275,1.034-0.511,0.485-0.96c-4.643-3.807-6.778-6.575-7.719-8.09
					c-0.468-0.753-0.566-1.627-0.285-2.361c0.646-1.685,1.92-5.122,2.717-7.974C2064.505,976.16,2063.142,975.309,2062.494,976.059z
					"/>
				<path style="fill:#FFFFFF;" d="M2091.006,1008.656c0.829-1.328-0.314-2.998-1.848-2.69c-3.9,0.783-10.357,1.942-16.57,2.436
					c-6.213,0.495-12.773,0.373-16.748,0.217c-1.563-0.062-2.427,1.769-1.398,2.947c3.163,3.625,9.531,9.004,19.055,8.244
					C2083.019,1019.054,2088.456,1012.736,2091.006,1008.656z"/>
				<path d="M2089.908,965.806c0,3.801,3.081,6.881,6.882,6.881c3.802,0,6.882-3.08,6.882-6.881c0-3.802-3.08-6.884-6.882-6.884
					C2092.989,958.922,2089.908,962.004,2089.908,965.806z"/>
				<path d="M2039.09,965.806c0,3.801,3.08,6.881,6.882,6.881c3.8,0,6.882-3.08,6.882-6.881c0-3.802-3.082-6.884-6.882-6.884
					C2042.17,958.922,2039.09,962.004,2039.09,965.806z"/>
				<path d="M2057.882,885.758C2057.882,885.758,2057.882,885.758,2057.882,885.758c15.025-14.302,42.082-20.572,59.782-12.786
					c23.507,10.341,47.601,58.437,32.437,90.419c-31.091-2.615-72.895-26.167-92.207-46.05
					c-5.363,4.787-18.919,16.161-36.132,25.262C2019.7,927.408,2050.918,888.758,2057.882,885.758z"/>
				<g>
					<path style="fill:#F37A50;" d="M2133.645,958.828c-7.719,6.64-9.57,17.142-4.137,23.459c5.434,6.316,16.096,6.054,23.814-0.585
						c7.718-6.64,9.569-17.143,4.136-23.459S2141.362,952.189,2133.645,958.828z"/>
					<g>
						<path style="fill:#DE623C;" d="M2139.263,979.895c-0.308-0.134-0.587-0.34-0.817-0.615c-3.283-3.948-3.8-8.542-1.381-12.285
							c2.477-3.834,7.329-5.772,11.539-4.607c1.185,0.328,1.879,1.554,1.551,2.739c-0.328,1.184-1.554,1.878-2.738,1.551
							c-2.307-0.637-5.211,0.562-6.611,2.73c-1.348,2.085-0.969,4.58,1.064,7.023c0.786,0.945,0.657,2.35-0.287,3.135
							C2140.91,980.125,2140.011,980.222,2139.263,979.895z"/>
					</g>
				</g>
			</g>
			<g>
				<g>
					<g>
						<g>
							<path style="fill:#3F964F;" d="M2234.336,1588.349c-44.855-55.409-12.005-251.879-93.246-311.808l-139.606,11.365
								c-46.59,60.394-14.292,189.625-52.569,312.757C2014.645,1624.125,2116.514,1625.198,2234.336,1588.349z"/>
						</g>
					</g>
				</g>
			</g>
			<g id="c_32_">
				<path style="fill:#F37A50;" d="M2177.014,1294.938l-8.201,3.277c0,0-8.548-13.594-17.215-13.16l4.32,12.983
					c0,0-4.903,15.179-31.162,13.441c-22.431,5.098-6.738,15.748-12.948,20.008c-9.164,6.285,16.534,21.721,38.185,15.064
					c28.016-8.615,46.217-35.072,46.217-35.072L2177.014,1294.938z"/>
			</g>
			<path style="fill:#F37A50;" d="M2177.014,1294.938l47.927-70.193c0,0,11.32-26.924,53.821-11.673
				c2.057,22.85-14.489,55.39-90.293,105.532C2183.572,1305.807,2177.014,1294.938,2177.014,1294.938z"/>
			<path style="fill:#F37A50;" d="M2177.014,1076.658c0,0,68.555,40.157,101.748,136.413c-29.814,33.052-57.52,5.831-57.52,5.831
				l-63.83-63.071c0,0-19.523-23.982-10.188-53.276C2155.357,1077.038,2177.014,1076.658,2177.014,1076.658z"/>
			<path style="fill:#FFFFFF;" d="M2053.04,1071.845c0,3.591-2.91,6.5-6.501,6.5c-3.59,0-6.5-2.909-6.5-6.5
				c0-3.591,2.91-6.501,6.5-6.501C2050.13,1065.344,2053.04,1068.254,2053.04,1071.845z"/>
			<path style="fill:#FFFFFF;" d="M2053.04,1084.846c0,3.591-2.91,6.502-6.501,6.502c-3.59,0-6.5-2.911-6.5-6.502
				c0-3.59,2.91-6.501,6.5-6.501C2050.13,1078.345,2053.04,1081.256,2053.04,1084.846z"/>
			<path style="fill:#FFFFFF;" d="M2055.14,1096.695c0,3.59-2.91,6.501-6.5,6.501c-3.591,0-6.502-2.911-6.502-6.501
				c0-3.59,2.911-6.501,6.502-6.501C2052.229,1090.194,2055.14,1093.105,2055.14,1096.695z"/>
			<path style="fill:#FFFFFF;" d="M2062.652,1106.026c0,3.591-2.91,6.501-6.501,6.501c-3.59,0-6.5-2.91-6.5-6.501
				c0-3.59,2.91-6.501,6.5-6.501C2059.742,1099.525,2062.652,1102.437,2062.652,1106.026z"/>
			<path style="fill:#FFFFFF;" d="M2075.001,1109.697c0,3.59-2.911,6.501-6.502,6.501c-3.59,0-6.5-2.911-6.5-6.501
				c0-3.59,2.91-6.501,6.5-6.501C2072.09,1103.196,2075.001,1106.108,2075.001,1109.697z"/>
			<path style="fill:#FFFFFF;" d="M2087.131,1106.026c0,3.591-2.91,6.501-6.501,6.501s-6.501-2.91-6.501-6.501
				c0-3.59,2.91-6.501,6.501-6.501S2087.131,1102.437,2087.131,1106.026z"/>
			<path style="fill:#FFFFFF;" d="M2097.785,1099.525c0,3.591-2.91,6.501-6.5,6.501c-3.592,0-6.502-2.91-6.502-6.501
				c0-3.59,2.91-6.5,6.502-6.5C2094.875,1093.025,2097.785,1095.936,2097.785,1099.525z"/>
			<path style="fill:#FFFFFF;" d="M2106.355,1091.348c0,3.59-2.91,6.5-6.5,6.5s-6.501-2.91-6.501-6.5
				c0-3.591,2.911-6.502,6.501-6.502S2106.355,1087.757,2106.355,1091.348z"/>
			<path style="fill:#FFFFFF;" d="M2115.221,1083.158c0,3.591-2.91,6.501-6.5,6.501c-3.591,0-6.502-2.91-6.502-6.501
				c0-3.59,2.911-6.5,6.502-6.5C2112.311,1076.658,2115.221,1079.568,2115.221,1083.158z"/>
			<path style="fill:#FFFFFF;" d="M2121.723,1073.361c0,3.592-2.911,6.502-6.502,6.502c-3.59,0-6.5-2.91-6.5-6.502
				c0-3.59,2.91-6.5,6.5-6.5C2118.812,1066.861,2121.723,1069.771,2121.723,1073.361z"/>
			<circle style="fill:#FFFFFF;" cx="2119.42" cy="1062.632" r="6.501"/>
		</g>
	</g>
	<g>
		<g>
			<path style="fill:#4364CC;" d="M1039.011,1812.81l38.903,124.044c1.038,3.309,2.769,5.292,4.619,5.292l0,0
				c3.431,0,6.048-6.619,5.511-13.934l-8.47-115.402H1039.011z"/>
			<path style="fill:#4364CC;" d="M680.204,1812.81l-38.903,124.044c-1.038,3.309-2.768,5.292-4.619,5.292l0,0
				c-3.43,0-6.048-6.619-5.511-13.934l8.471-115.402H680.204z"/>
			<path style="fill:#4364CC;" d="M495.152,1812.81l-38.904,124.044c-1.038,3.309-2.768,5.292-4.619,5.292l0,0
				c-3.429,0-6.047-6.619-5.511-13.934l8.471-115.402H495.152z"/>
			<path style="fill:#768FDB;" d="M718.104,1817.372h349.266c24.068,0,43.58-19.513,43.58-43.583v-221.537
				c0-18.716-15.171-33.888-33.887-33.888H718.104V1817.372z"/>
			<path style="fill:#4364CC;" d="M631.101,1817.372h349.266c24.069,0,43.58-19.513,43.58-43.583v-221.537
				c0-18.716-15.171-33.888-33.886-33.888h-358.96V1817.372z"/>
			<path style="fill:#768FDB;" d="M555.097,1593.986h289.665v-212.403c0-17.382-14.091-31.473-31.474-31.473H555.097V1593.986z"/>
			<path style="fill:#95ADF5;" d="M523.916,1588.866h461.065c21.944,0,39.734,17.789,39.734,39.735v45.823h-500.8V1588.866z"/>
			<rect x="523.916" y="1664.483" style="fill:#768FDB;" width="500.8" height="153.109"/>
			<path style="fill:#4364CC;" d="M454.342,1593.986h100.755V1350.11h-68.229c-17.963,0-32.525,14.563-32.525,32.526V1593.986z"/>
		</g>
		<g>
			<path style="fill:#201D40;" d="M760.289,1082.974c0,26.757-21.691,48.45-48.45,48.45s-48.45-21.693-48.45-48.45
				c0-26.76,21.691-48.452,48.45-48.452S760.289,1056.214,760.289,1082.974z"/>
			<path style="fill:#2C2858;" d="M835.215,1219.469c22.831-22.111,46.81-114.876-16.595-142.914
				c-60.002-26.533-135.708,10.56-138.597,74.27c-2.89,63.711,45.782,94.632,45.782,94.632L835.215,1219.469z"/>
			<path style="fill:#F37A50;" d="M1112.131,1775.411l19.119,26.744c0,0,17.077,21.765,37.434,11.546
				c20.358-10.221,11.334-42.916,11.334-42.916l-23.389-30.794L1112.131,1775.411z"/>
			<g>
				<g>
					<g>
						<path style="fill:#2C2858;" d="M1179.221,1767.243c0,0,20.558-0.193,42.889-7.802c12.493-4.256,45.152-16.642,52.484,5.704
							c1.095,3.335,0.583,8.005-5.546,15.107c-9.053,10.49-22.872,22.036-55.28,32.075c-38.879,12.044-42.014,18.929-56.864,22.601
							c-15.392,3.804-20.485-17.664-26.437-35.108l0,0c2.716,3.681,10.807,12.746,39.725,7.46
							C1178.825,1805.703,1154.186,1778.568,1179.221,1767.243z"/>
					</g>
				</g>
			</g>
			<path style="fill:#F37A50;" d="M950.2,1867.355v18.137c0,0,1.233,27.64,23.737,31.167c22.504,3.526,34.179-28.319,34.179-28.319
				l-0.825-28.57L950.2,1867.355z"/>
			<g>
				<path style="fill:#C4204A;" d="M863.982,1415.57c-10.977-0.097-33.467,40.151-31.558,43.482
					c26.61,29.514,130.557,32.547,130.557,32.547l12.486-12.808C975.468,1478.792,913.696,1450.455,863.982,1415.57z"/>
				<path style="fill:#C4204A;" d="M765.413,1323.361c10.106,30.4,56.044,131.961,67.012,135.691l31.558-43.482
					c0,0-47.78-106.636-56.024-122.531C793.745,1265.479,748.818,1273.76,765.413,1323.361z"/>
			</g>
			<path style="fill:#F37A50;" d="M768.248,1223.608c0,0,4.381,39.257,6.206,53.691l-51.257,13.052
				c-6.595-44.034-7.095-99.323-7.095-99.323L768.248,1223.608z"/>
			<g>
				<path style="fill:#F37A50;" d="M714.408,1166.4c-2.529,47.145,25.435,86.975,62.464,88.962
					c37.027,1.986,69.095-34.62,71.624-81.766c2.53-47.146-25.436-86.974-62.463-88.962
					C749.005,1082.646,716.938,1119.257,714.408,1166.4z"/>
				<path d="M828.863,1180.348c0.615,3.509,3.957,5.854,7.466,5.24c3.508-0.615,5.854-3.958,5.238-7.465
					c-0.615-3.51-3.957-5.853-7.465-5.24C830.594,1173.497,828.248,1176.84,828.863,1180.348z"/>
				<path d="M776.751,1177.91c0.666,3.797,4.283,6.334,8.082,5.67c3.796-0.665,6.335-4.283,5.671-8.081
					c-0.666-3.796-4.284-6.336-8.082-5.671C778.625,1170.492,776.085,1174.111,776.751,1177.91z"/>
				<g>
					<path style="fill:#2C2858;" d="M770.998,1170.172c0.523-0.093,1.021-0.357,1.4-0.786c5.501-6.24,14.982-4.96,15.077-4.947
						c1.324,0.191,2.557-0.725,2.75-2.049c0.194-1.325-0.717-2.554-2.04-2.752c-0.493-0.074-12.158-1.71-19.429,6.538
						c-0.887,1.005-0.79,2.538,0.215,3.426C769.548,1170.108,770.297,1170.293,770.998,1170.172z"/>
				</g>
				<g>
					<path style="fill:#2C2858;" d="M845.006,1175.391c0.257-0.044,0.511-0.133,0.752-0.266c1.175-0.645,1.602-2.12,0.957-3.297
						c-5.017-9.12-14.63-8.81-15.036-8.792c-1.337,0.057-2.378,1.19-2.319,2.53c0.058,1.337,1.185,2.373,2.52,2.322
						c0.314-0.012,7.054-0.135,10.581,6.28C842.975,1175.104,844.013,1175.564,845.006,1175.391z"/>
				</g>
				<path style="fill:#DE623C;" d="M820.896,1192.61c2.355,4.495,4.263,8.976,6.896,11.979c0.887,1.013,0.806,2.569-0.163,3.504
					c-3.992,3.862-12.765,5.413-18.038,6.013c-0.77,0.088-1.065-0.974-0.361-1.299c5.958-2.742,8.896-5.19,10.245-6.615
					c0.672-0.705,0.951-1.688,0.776-2.648c-0.4-2.203-1.171-6.682-1.517-10.301C818.616,1191.992,820.313,1191.499,820.896,1192.61z
					"/>
				<g>
					<path style="fill:#DE623C;" d="M790.347,1234.915c-16.824-4.995-20.748-17.532-20.945-18.197
						c-0.419-1.42,0.392-2.911,1.812-3.329c1.415-0.418,2.9,0.385,3.325,1.797c0.221,0.709,5.472,16.651,31.645,16.395
						c1.48-0.016,2.692,1.176,2.706,2.654c0.015,1.479-1.174,2.691-2.654,2.705C799.961,1237.001,794.718,1236.212,790.347,1234.915
						z"/>
				</g>
				<path style="fill:#2C2858;" d="M709.156,1166.249c42.903,6.725,118.674-22.165,129.815-42.333
					c-0.286-28.286-38.942-53.938-66.52-49.062C744.876,1079.73,701.362,1128.446,709.156,1166.249z"/>
				<g>
					<path style="fill:#F37A50;" d="M730.959,1163.214c6.46,9.029,5.707,20.635-1.683,25.92c-7.389,5.286-18.616,2.252-25.076-6.777
						c-6.459-9.029-5.705-20.635,1.684-25.922C713.273,1151.149,724.5,1154.184,730.959,1163.214z"/>
					<g>
						<path style="fill:#DE623C;" d="M719.56,1184.076c0.36-0.062,0.711-0.207,1.024-0.438c4.5-3.333,6.235-8.065,4.641-12.658
							c-1.632-4.701-6.271-8.009-11.033-7.863c-1.34,0.042-2.393,1.16-2.353,2.5c0.041,1.34,1.161,2.392,2.501,2.352
							c2.608-0.079,5.375,1.943,6.298,4.603c0.888,2.557-0.158,5.102-2.943,7.165c-1.078,0.799-1.304,2.317-0.506,3.396
							C717.756,1183.895,718.685,1184.23,719.56,1184.076z"/>
					</g>
				</g>
			</g>
			<path style="fill:#3F964F;" d="M787.588,1606.302l218.392-9.329c0,0,10.774-54.509,2.67-76.119
				c-8.104-21.61-208.759-17.155-208.759-17.155L787.588,1606.302z"/>
			<path style="fill:#0E6A41;" d="M723.358,1466.347c-5.918,13.677-28.982,54.38-26.755,87.378
				c2.299,34.056,26.328,63.706,66.995,63.06c0,0,76.649-43.572,60.06-132.824C823.658,1483.961,783.53,1468.291,723.358,1466.347z"
				/>
			<path style="fill:#0E6A41;" d="M757.539,1624.559l192.373,18.149c0,0,65.989-27.85,65.613-51.498
				c-0.375-23.65-194.208-88.362-194.208-88.362C707.635,1469.693,669.738,1610.791,757.539,1624.559z"/>
			<path style="fill:#0E6A41;" d="M1015.525,1591.209l-3.857,271.35c0,0-48.022,20.239-64.852,0.156
				c-7.942-92.096-45.76-173.682-3.54-229.825C999.824,1557.693,1015.525,1591.209,1015.525,1591.209z"/>
			<path style="fill:#3F964F;" d="M1008.187,1520.218l160.086,219.847c0,0-35.73,47.752-60.68,42.162
				c-43.043-54.466-130.143-118.332-130.7-186.875C976.148,1503.548,1008.187,1520.218,1008.187,1520.218z"/>
			<path style="fill:#E62552;" d="M720.964,1273.121l53.884-0.598c24.724,28.754,49.827,53.455,54.265,73.096
				c5.842,25.855,4.755,165.522,4.755,165.522c-45.332,16.592-95.991,1.81-129.017-10.458
				c8.286-68.737-46.918-145.997-14.799-198.303C698.066,1289.326,708.746,1283.117,720.964,1273.121z"/>
			<g>
				<g>
					<g>
						<path style="fill:#2C2858;" d="M1009.527,1884.992c0,0,16.836,11.8,39.427,18.6c12.639,3.802,46.408,12.722,39.377,35.164
							c-1.049,3.35-4.181,6.85-13.298,9.064c-13.465,3.269-31.422,4.624-63.624-6.058c-38.632-12.815-45.186-9.036-59.401-14.687
							c-14.734-5.857-6.391-26.283-1.087-43.934l0,0c0.067,4.572,1.377,16.652,27.976,29.17
							C986.838,1916.048,982.575,1879.646,1009.527,1884.992z"/>
					</g>
				</g>
			</g>
			<g>
				<path style="fill:#2C2858;" d="M827.604,1522.575h174.522l34.448-109.532c1.592-5.059-2.187-10.207-7.489-10.207H871.025
					c-3.43,0-6.462,2.224-7.49,5.495L827.604,1522.575z"/>
				<path style="fill:#494C7F;" d="M840.842,1522.575h167.029c4.46,0,8.404-2.895,9.741-7.149l32.201-102.383
					c1.591-5.059-2.186-10.207-7.489-10.207H884.263c-3.429,0-6.461,2.224-7.49,5.495L840.842,1522.575z"/>
				<path style="fill:#555994;" d="M943.588,1464.863c-1.922,6.767,1.5,13.666,7.643,15.41c6.145,1.748,12.684-2.322,14.607-9.088
					c1.922-6.766-1.5-13.667-7.645-15.414C952.05,1454.027,945.51,1458.097,943.588,1464.863z"/>
				<path style="fill:#2C2858;" d="M746.777,1506.354h94.065v15.946H734.393v-3.563
					C734.393,1511.899,739.938,1506.354,746.777,1506.354z"/>
			</g>
			<path style="fill:#F37A50;" d="M820.516,1514.359c-12.494-0.106-28.907,2.271-28.521-4.201c0.388-6.473,6.823-8.853,7.602-16.631
				c0.69-6.894-22.479-5.123-37.13,17.648l-4.315-2.387l-12.393,21.093l7.838,2.901c13.247,15.928,53.183,24.076,76.661,11.646
				C854.03,1531.842,833.01,1514.466,820.516,1514.359z"/>
			<path style="fill:#C4204A;" d="M671.108,1310.354c-15.395,33.844-72.094,110.699-59.726,153.229
				c8.659,29.774,136.923,73.35,136.923,73.35l12.187-31.059l-89.129-66.322c0,0,52.018-101.434,57.424-120.62
				C738.239,1285.385,695.314,1257.134,671.108,1310.354z"/>
			<path style="fill:#E62552;" d="M717.579,1253.656l1.243,21.193h56.025v-16.935
				C774.848,1257.914,737.352,1256.39,717.579,1253.656z"/>
		</g>
		<path style="fill:#768FDB;" d="M541.346,1817.372h208.49c24.068,0,43.581-19.513,43.581-43.583v-221.537
			c0-18.716-15.172-33.888-33.887-33.888H541.346V1817.372z"/>
		<path style="fill:#4364CC;" d="M454.342,1817.372h208.491c24.068,0,43.579-19.513,43.579-43.583v-221.537
			c0-18.716-15.171-33.888-33.886-33.888H454.342V1817.372z"/>
	</g>
	<g>
		<g>
			<path style="fill:#0E6A41;" d="M236.093,1866.806c-16.492,69.256-75.444,31.164-63.116,74.937c0.91,3.227,3.976,5.382,7.326,5.51
				l34.616,1.324c3.34,0.128,6.632-0.826,9.39-2.714c18.263-12.505,30.654-30.115,70.096-32.253
				c-0.3-16.839,0.466-40.884-5.098-49.48L236.093,1866.806z"/>
			<path style="fill:#201D40;" d="M327.316,1380.809c0,0-100.674,153.546-114.571,201.308
				c-13.898,47.761,15.176,128.69,9.916,291.79c31.465,8.166,73.419,1.147,73.419,1.147s25.25-204.579-4.451-252.887
				c44.503-67.905,156.283-216.153,156.283-216.153L327.316,1380.809z"/>
		</g>
		<g>
			<path style="fill:#0E6A41;" d="M383.147,1889.129c-25.617,34.869-89.556,14.247-86.992,61.048
				c96.914-1.543,137.199-1.332,137.199-1.332c-0.232-10.753-2.396-36.26-4.729-46.229L383.147,1889.129z"/>
			<path style="fill:#2C2858;" d="M353.118,1349.77c0,0-32.102,250.507-24.69,299.694c7.41,49.185,30.369,87.685,31.175,250.867
				c31.747,6.995,80.264,13.278,80.264,13.278s20.458-196.817-21.621-251.008c11.926-80.31,68.756-282.306,68.756-282.306
				L353.118,1349.77z"/>
		</g>
		<g>
			<path style="fill:#C4204A;" d="M188.658,1239.491l-39.136-43.886c-0.854-0.947-2.061-1.498-3.335-1.521l-32.225-0.191
				c-0.919-0.017-3.761,5.08-3.144,5.761l27.606,24.532c0.128,0.141,0.291,0.244,0.473,0.3l47.342,17.563
				C187.255,1242.358,189.369,1240.279,188.658,1239.491z"/>
			<path style="fill:#E62552;" d="M185.669,1242.433l-37.284-41.375c-0.854-0.947-2.061-1.499-3.335-1.519l-33.221-0.598
				c-0.919-0.017-1.412,1.072-0.796,1.753l26.254,28.943c0.127,0.141,0.291,0.244,0.473,0.3l46.828,14.2
				C185.604,1244.443,186.38,1243.222,185.669,1242.433z"/>
			<path style="fill:#F37A50;" d="M259.338,1280.172l-26.965-13.22c0,0-26.598-26.917-30.547-32.932
				c-5.917-2.994-17.11-10.532-19.627-10.82c-2.518-0.288-7.674,0.49-7.674,0.49l12.486,14.201c0,0-5.932,1.176-13.495-3.629
				c-7.566-4.805-20.929-17.691-27.474-15.195c-2.321,2.055-2.321,2.055-2.321,2.055s-4.133-4.413-8.029-2.772
				c-3.896,1.642,3.852,21.072,25.84,41.669c1.458,5.497,8.702,15.133,8.702,15.133l44.458,15.616L259.338,1280.172z"/>
			<path style="fill:#C4204A;" d="M142.311,1207.3c1.579,1.58,3.85,1.869,5.071,0.648c1.222-1.222,0.931-3.492-0.648-5.071
				s-3.85-1.869-5.071-0.647C140.441,1203.451,140.731,1205.721,142.311,1207.3z"/>
			<path style="fill:#F37A50;" d="M384.9,1081.89c-8,10.368,54.667,21.646,63.067,0.097c8.399-21.551-6.026-80.827-6.026-80.827
				l-57.137,12.129C384.805,1013.288,395.313,1068.394,384.9,1081.89z"/>
			<g>
				<path style="fill:#F37A50;" d="M454.438,952.775c4.811,45.841-20.477,86.066-56.482,89.848
					c-36.005,3.776-69.092-30.322-73.902-76.165c-4.811-45.843,20.477-86.069,56.481-89.846
					C416.54,872.833,449.627,906.933,454.438,952.775z"/>
				<path d="M345.324,979.955c-1.273,3.547-5.182,5.39-8.728,4.117c-3.547-1.273-5.391-5.181-4.117-8.728
					c1.272-3.547,5.181-5.391,8.729-4.117C344.754,972.499,346.597,976.407,345.324,979.955z"/>
				<path d="M390.071,970.18c-1.379,3.84-5.608,5.835-9.449,4.458c-3.839-1.379-5.835-5.61-4.456-9.449
					c1.378-3.84,5.608-5.835,9.448-4.457C389.454,962.11,391.449,966.34,390.071,970.18z"/>
				<path style="fill:#DE623C;" d="M358.354,978.531c-1.446,10.742-3.458,23.961-3.458,23.961s7.061,7.447,18.769,2.301
					c-5.855,0.193-12.233-0.921-13.197-8.405C359.505,988.904,358.354,978.531,358.354,978.531z"/>
				<g>
					<path style="fill:#201D40;" d="M343.321,964.373c-0.767,0.46-1.749,0.514-2.591,0.06c-0.083-0.043-2.927-1.494-5.589-0.477
						c-1.878,0.717-3.382,2.561-4.467,5.481c-0.504,1.356-2.012,2.045-3.366,1.542c-1.354-0.504-2.046-2.011-1.542-3.366
						c1.646-4.427,4.195-7.313,7.579-8.576c4.952-1.849,9.684,0.686,9.882,0.794c1.269,0.693,1.735,2.284,1.041,3.553
						C344.037,963.807,343.706,964.142,343.321,964.373z"/>
				</g>
				<g>
					<path style="fill:#201D40;" d="M377.364,956.913c0.875,0.182,1.819-0.09,2.466-0.795c0.065-0.068,2.273-2.373,5.121-2.29
						c2.009,0.059,4.036,1.306,6.021,3.706c0.922,1.113,2.571,1.27,3.686,0.348c1.114-0.922,1.271-2.572,0.349-3.686
						c-3.012-3.64-6.368-5.525-9.979-5.604c-5.286-0.116-8.919,3.834-9.07,4.002c-0.971,1.073-0.887,2.728,0.185,3.698
						C376.501,956.615,376.924,956.822,377.364,956.913z"/>
				</g>
				<path style="fill:#201D40;" d="M441.054,981.892c-23.72-19.857-17.17-50.196-17.17-50.196
					c-11.503,0.753-14.726,5.671-14.726,5.671c-9.248-10.621-6.997-20.622-6.997-20.622c-24.928-2.715-32.226,14.917-51.253,25.322
					c-26.057,14.248-63.477,12.403-75.866-20.753c-1.794-4.799,2.764-9.446,7.616-7.803c4.502,1.525,10.123,2.225,16.378,0.349
					c0,0-7.613-5.013-10.367-14.044c-1.519-4.982,3.642-9.281,8.373-7.105c7.093,3.262,19.072,4.923,37.271-3.83
					c12.113-5.826,35.81-34.124,55.077-35.034c15.75-0.745,30.958,8.734,40.917,25.48c0,0,37.574-6.058,52.076,33.183
					c14.247,38.553-39.159,98.111-39.159,98.111S447.321,987.996,441.054,981.892z"/>
				<path style="fill:#FFFFFF;" d="M361.255,1022.326c-1.484-0.961-1.115-3.221,0.602-3.64c4.368-1.067,11.536-2.978,18.134-5.452
					c6.598-2.474,13.255-5.746,17.25-7.81c1.57-0.813,3.334,0.646,2.846,2.347c-1.499,5.228-5.44,13.788-15.554,17.578
					C374.419,1029.141,365.822,1025.28,361.255,1022.326z"/>
				<g>
					<path style="fill:#F37A50;" d="M424.164,954.887c-7.715,7.613-8.92,18.902-2.69,25.217c6.23,6.314,17.535,5.262,25.251-2.351
						c7.717-7.612,8.921-18.902,2.691-25.217C443.185,946.222,431.88,947.274,424.164,954.887z"/>
					<g>
						<path style="fill:#DE623C;" d="M431.661,976.856c-0.336-0.122-0.648-0.319-0.911-0.595c-3.775-3.956-4.657-8.796-2.36-12.949
							c2.352-4.252,7.365-6.662,11.922-5.73c1.282,0.264,2.109,1.515,1.847,2.796c-0.262,1.283-1.514,2.109-2.796,1.848
							c-2.496-0.51-5.494,0.975-6.825,3.38c-1.278,2.311-0.695,4.933,1.642,7.382c0.903,0.947,0.868,2.447-0.079,3.351
							C433.429,976.979,432.478,977.148,431.661,976.856z"/>
					</g>
				</g>
			</g>
			<path style="fill:#3F964F;" d="M315.253,1399.2c44.696,9.122,125.055,24.866,167.556,8.297
				c16.083-23.091,20.158-153.666,20.158-153.666c4.652-134.4-11.466-154.344-47.814-199.375
				c-15.252,7.008-53.431,12.982-70.216,13.112c0,0-38.032,52.805-45.453,91.149c-7.524,38.881-8.376,108.008-9.075,147.604
				C329.633,1350.295,320.945,1371.501,315.253,1399.2z"/>
			<path style="fill:#0E6A41;" d="M460.449,1095.256c26.144,50.893,20.224,107.254-55.795,218.213
				c-53.237-4.644-63.677-49.014-63.677-49.014s14.627-55.092,33.628-124.391C393.605,1070.767,449.008,1072.983,460.449,1095.256z"
				/>
			<path style="fill:#0E6A41;" d="M228.035,1253.831l113.986,9.095c0,0,48.885-8.916,62.633,50.543
				c-24.468,19.049-87.623,26.193-191.215-12.265C224.402,1286.283,228.035,1253.831,228.035,1253.831z"/>
			<polygon style="fill:#FFFFFF;" points="385.279,1063.798 384.196,1094.457 461.316,1062.123 451.978,1037.32 			"/>
		</g>
	</g>
	<g>
		<path style="fill:#FFFFFF;" d="M1574.291,1572.486c-8.524,0-17.127-0.232-25.569-0.69c-3.86-0.209-6.82-3.509-6.611-7.369
			c0.21-3.861,3.532-6.822,7.369-6.611c9.754,0.529,19.689,0.75,29.546,0.645c0.024,0,0.05,0,0.074,0
			c3.832,0,6.959,3.087,6.998,6.929c0.04,3.866-3.061,7.032-6.927,7.071C1577.543,1572.479,1575.916,1572.486,1574.291,1572.486z
			 M1609.068,1571.192c-3.627,0-6.697-2.798-6.973-6.476c-0.289-3.854,2.601-7.215,6.456-7.504
			c9.941-0.746,19.814-1.823,29.343-3.206c3.832-0.547,7.378,2.098,7.933,5.924c0.555,3.826-2.098,7.377-5.923,7.932
			c-9.848,1.428-20.043,2.542-30.305,3.311C1609.422,1571.187,1609.245,1571.192,1609.068,1571.192z M1984.997,1569.395
			c-0.087,0-0.172-0.001-0.26-0.004c-11.125-0.404-21.718-2.376-31.479-5.856c-3.642-1.3-5.541-5.305-4.243-8.946
			c1.299-3.642,5.304-5.536,8.945-4.242c8.412,3,17.594,4.7,27.287,5.054c3.863,0.141,6.882,3.387,6.74,7.25
			C1991.85,1566.426,1988.746,1569.395,1984.997,1569.395z M1519.225,1569.168c-0.287,0-0.577-0.019-0.869-0.055
			c-10.366-1.283-20.512-2.935-30.155-4.913c-3.787-0.776-6.228-4.475-5.451-8.263c0.776-3.789,4.477-6.234,8.264-5.451
			c9.283,1.902,19.062,3.494,29.063,4.732c3.837,0.475,6.563,3.971,6.087,7.807
			C1525.724,1566.57,1522.706,1569.168,1519.225,1569.168z M2014.75,1566.327c-3.138,0-5.991-2.123-6.787-5.304
			c-0.938-3.752,1.343-7.551,5.093-8.488c9.504-2.377,17.982-6.037,25.196-10.881c3.211-2.155,7.561-1.299,9.713,1.91
			c2.156,3.211,1.3,7.56-1.91,9.715c-8.563,5.748-18.525,10.067-29.603,12.837
			C2015.883,1566.258,2015.311,1566.327,2014.75,1566.327z M1668.396,1562.495c-3.196,0-6.083-2.204-6.82-5.454
			c-0.854-3.77,1.509-7.52,5.278-8.375c9.899-2.244,19.408-4.87,28.26-7.804c3.67-1.216,7.632,0.774,8.848,4.442
			c1.215,3.67-0.774,7.631-4.443,8.846c-9.28,3.076-19.228,5.824-29.568,8.17
			C1669.431,1562.438,1668.909,1562.495,1668.396,1562.495z M1460.542,1556.943c-0.688,0-1.387-0.102-2.078-0.316
			c-10.44-3.241-20.164-6.963-28.9-11.06c-3.5-1.641-5.006-5.81-3.364-9.31s5.81-5.004,9.31-3.364
			c8.157,3.825,17.276,7.313,27.106,10.363c3.692,1.146,5.756,5.068,4.609,8.761
			C1466.293,1555.018,1463.527,1556.943,1460.542,1556.943z M1930.103,1548.593c-1.752,0-3.505-0.653-4.864-1.966
			c-8.32-8.039-14.004-17.724-16.892-28.786c-0.978-3.739,1.263-7.565,5.004-8.541c3.737-0.978,7.566,1.262,8.542,5.005
			c2.229,8.537,6.629,16.026,13.075,22.254c2.78,2.686,2.857,7.117,0.171,9.899
			C1933.764,1547.877,1931.934,1548.593,1930.103,1548.593z M1725.155,1543.358c-2.603,0-5.103-1.459-6.309-3.961
			c-1.679-3.482-0.217-7.666,3.265-9.346c9.219-4.445,17.5-9.371,24.614-14.642c3.108-2.299,7.489-1.646,9.79,1.459
			c2.302,3.107,1.649,7.49-1.456,9.791c-7.819,5.793-16.858,11.178-26.867,16.004
			C1727.212,1543.134,1726.175,1543.358,1725.155,1543.358z M2062.247,1532.641c-1.093,0-2.203-0.256-3.238-0.799
			c-3.426-1.792-4.75-6.021-2.958-9.447c3.537-6.762,5.332-14.323,5.332-22.475c0-0.961-0.026-1.941-0.074-2.916
			c-0.196-3.861,2.776-7.149,6.638-7.344c3.85-0.176,7.147,2.777,7.345,6.639c0.06,1.207,0.092,2.426,0.092,3.621
			c0,10.434-2.331,20.18-6.928,28.965C2067.205,1531.274,2064.769,1532.641,2062.247,1532.641z M1406.818,1530.893
			c-1.491,0-2.993-0.473-4.265-1.453c-2.488-1.916-4.86-3.909-7.05-5.927c-4.968-4.575-10.483-9.773-15.706-14.706
			c-2.811-2.652-2.938-7.084-0.283-9.894c2.654-2.811,7.084-2.938,9.896-0.284c5.19,4.902,10.669,10.065,15.578,14.587
			c1.889,1.74,3.942,3.467,6.104,5.131c3.064,2.358,3.636,6.753,1.277,9.816C1410.991,1529.953,1408.917,1530.893,1406.818,1530.893
			z M1772.271,1507.172c-1.457,0-2.926-0.453-4.184-1.393c-3.097-2.314-3.733-6.701-1.417-9.799
			c0.504-0.672,0.992-1.352,1.469-2.039c5.182-7.451,11.565-14.698,18.977-21.541c2.843-2.624,7.271-2.445,9.893,0.393
			c2.622,2.842,2.445,7.271-0.395,9.893c-6.665,6.154-12.377,12.629-16.978,19.247c-0.566,0.816-1.152,1.626-1.752,2.43
			C1776.51,1506.201,1774.404,1507.172,1772.271,1507.172z M1914.513,1493.288c-0.245,0-0.49-0.013-0.737-0.039
			c-3.846-0.402-6.637-3.846-6.233-7.691c1.096-10.475,3.081-20.758,5.901-30.563c1.069-3.715,4.946-5.859,8.663-4.792
			c3.715,1.069,5.86,4.946,4.793,8.663c-2.596,9.018-4.424,18.488-5.435,28.149
			C1921.089,1490.613,1918.05,1493.288,1914.513,1493.288z M1362.721,1490.146c-1.707,0-3.418-0.62-4.767-1.874
			c-7.96-7.405-15.182-13.99-22.076-20.131c-2.887-2.572-3.143-6.996-0.571-9.884c2.571-2.886,6.997-3.144,9.883-0.57
			c6.971,6.208,14.265,12.858,22.3,20.335c2.831,2.633,2.991,7.061,0.358,9.891
			C1366.469,1489.395,1364.597,1490.146,1362.721,1490.146z M2060.947,1474.774c-2.605,0-5.105-1.46-6.313-3.965
			c-3.862-8.024-9.421-15.136-16.519-21.137c-2.954-2.495-3.324-6.912-0.828-9.865c2.493-2.952,6.912-3.324,9.864-0.826
			c8.614,7.279,15.375,15.945,20.098,25.756c1.677,3.484,0.213,7.667-3.271,9.344
			C2063,1474.551,2061.967,1474.774,2060.947,1474.774z M1815.642,1466.296c-2.301,0-4.553-1.132-5.891-3.208
			c-2.096-3.248-1.159-7.582,2.09-9.676c8.343-5.38,17.452-10.402,27.072-14.93c3.499-1.646,7.669-0.145,9.315,3.354
			c1.646,3.498,0.145,7.668-3.354,9.314c-9.062,4.264-17.623,8.983-25.446,14.027
			C1818.255,1465.935,1816.941,1466.296,1815.642,1466.296z M1317.816,1450.278c-1.585,0-3.178-0.534-4.487-1.632
			c-7.85-6.563-15.646-12.834-23.177-18.639c-3.061-2.361-3.63-6.756-1.27-9.818c2.36-3.061,6.755-3.629,9.817-1.269
			c7.676,5.917,15.619,12.306,23.609,18.988c2.966,2.48,3.359,6.896,0.879,9.861
			C1321.805,1449.425,1319.816,1450.278,1317.816,1450.278z M1869.723,1440.627c-2.915,0-5.639-1.838-6.627-4.752
			c-1.243-3.661,0.718-7.637,4.379-8.879c9.642-3.271,19.598-6.074,29.592-8.326c3.771-0.854,7.519,1.517,8.368,5.287
			c0.851,3.772-1.517,7.519-5.288,8.369c-9.518,2.146-18.996,4.815-28.174,7.928
			C1871.228,1440.506,1870.469,1440.627,1869.723,1440.627z M2016.879,1436.209c-0.866,0-1.745-0.161-2.599-0.502
			c-8.223-3.29-17.454-5.797-27.434-7.451c-3.816-0.633-6.395-4.238-5.762-8.052c0.633-3.815,4.242-6.385,8.05-5.763
			c10.979,1.82,21.188,4.602,30.348,8.267c3.59,1.437,5.335,5.512,3.898,9.1C2022.285,1434.545,2019.656,1436.209,2016.879,1436.209
			z M1931.063,1436.092c-1.057,0-2.131-0.241-3.142-0.748c-3.277-1.65-4.696-5.525-3.347-8.867
			c-1.801-1.083-3.098-2.961-3.354-5.211c-0.438-3.842,2.321-7.311,6.163-7.748c1.556-0.178,3.109-0.341,4.66-0.49
			c2.857-4.627,5.951-9.15,9.258-13.539c2.327-3.088,6.718-3.701,9.804-1.375c3.087,2.326,3.703,6.717,1.376,9.804
			c-1.001,1.327-1.979,2.668-2.938,4.021c2.911-0.078,5.791-0.105,8.646-0.08c3.865,0.039,6.969,3.203,6.932,7.068
			c-0.038,3.844-3.163,6.932-6.998,6.932c-0.023,0-0.047,0-0.069,0c-5.763-0.061-11.642,0.123-17.625,0.528
			c-1.082,1.937-2.118,3.888-3.107,5.853C1936.092,1434.681,1933.625,1436.092,1931.063,1436.092z M1270.233,1413.719
			c-1.379,0-2.771-0.408-3.99-1.254c-8.342-5.801-16.678-11.244-24.778-16.182c-3.301-2.012-4.346-6.319-2.334-9.62
			c2.012-3.302,6.319-4.349,9.62-2.335c8.34,5.083,16.914,10.682,25.485,16.643c3.174,2.207,3.957,6.569,1.751,9.743
			C1274.626,1412.67,1272.447,1413.719,1270.233,1413.719z M1966.816,1388.355c-1.841,0-3.679-0.721-5.053-2.152
			c-2.676-2.791-2.585-7.223,0.204-9.899c7.198-6.906,15.187-13.563,23.746-19.789c3.128-2.275,7.504-1.584,9.778,1.545
			c2.274,3.125,1.583,7.503-1.543,9.777c-8.049,5.854-15.548,12.102-22.287,18.568
			C1970.304,1387.708,1968.559,1388.355,1966.816,1388.355z M1218.928,1382.602c-1.075,0-2.166-0.248-3.188-0.773
			c-8.979-4.603-17.959-8.723-26.689-12.245c-3.585-1.445-5.319-5.525-3.873-9.11c1.447-3.584,5.524-5.318,9.11-3.873
			c9.121,3.68,18.487,7.975,27.839,12.771c3.441,1.763,4.8,5.983,3.036,9.422C1223.922,1381.211,1221.47,1382.602,1218.928,1382.602
			z M1018.25,1375.934c-2.441,0-4.813-1.278-6.1-3.557c-1.903-3.364-0.718-7.635,2.647-9.537c9.166-5.184,18.64-9.605,28.156-13.144
			c3.623-1.349,7.654,0.499,9.001,4.121c1.347,3.625-0.498,7.654-4.122,9.002c-8.824,3.28-17.62,7.387-26.145,12.208
			C1020.6,1375.642,1019.417,1375.934,1018.25,1375.934z M1163.285,1360.373c-0.625,0-1.259-0.084-1.89-0.262
			c-9.582-2.68-19.142-4.699-28.414-6.002c-3.828-0.537-6.496-4.077-5.958-7.905c0.538-3.828,4.083-6.5,7.905-5.958
			c9.887,1.389,20.059,3.536,30.238,6.384c3.723,1.042,5.896,4.905,4.855,8.627
			C1169.157,1358.35,1166.346,1360.373,1163.285,1360.373z M2500.869,1357.404c-2.699,0-5.271-1.57-6.42-4.203
			c-2.672-6.125-8.695-12.226-17.9-18.131c-3.254-2.09-4.199-6.42-2.112-9.674c2.087-3.252,6.415-4.199,9.673-2.109
			c11.576,7.427,19.373,15.607,23.172,24.316c1.547,3.543-0.072,7.668-3.617,9.215
			C2502.754,1357.216,2501.803,1357.404,2500.869,1357.404z M1074.253,1355.24c-3.304,0-6.244-2.348-6.873-5.714
			c-0.711-3.8,1.794-7.456,5.594-8.169c10.107-1.889,20.533-2.929,30.985-3.088c3.871-0.061,7.047,3.025,7.106,6.891
			c0.06,3.866-3.026,7.048-6.893,7.107c-9.663,0.147-19.294,1.106-28.625,2.854C1075.112,1355.201,1074.68,1355.24,1074.253,1355.24
			z M2015.063,1352.98c-2.438,0-4.805-1.273-6.093-3.545c-1.91-3.363-0.733-7.635,2.63-9.543
			c8.583-4.873,17.783-9.527,27.346-13.834c3.522-1.586,7.668-0.016,9.256,3.508c1.587,3.525,0.017,7.67-3.507,9.258
			c-9.168,4.128-17.977,8.584-26.183,13.242C2017.422,1352.687,2016.234,1352.98,2015.063,1352.98z M2069.646,1328.23
			c-2.869,0-5.561-1.777-6.587-4.633c-1.309-3.639,0.581-7.646,4.219-8.955c9.285-3.338,19.045-6.475,29.012-9.326
			c3.716-1.06,7.594,1.09,8.656,4.807c1.063,3.718-1.09,7.592-4.807,8.655c-9.67,2.765-19.131,5.806-28.125,9.038
			C2071.231,1328.098,2070.433,1328.23,2069.646,1328.23z M2453.451,1322.949c-0.844,0-1.699-0.153-2.533-0.477
			c-8.328-3.234-17.691-6.264-27.83-9c-3.732-1.009-5.941-4.85-4.934-8.583c1.008-3.731,4.854-5.938,8.582-4.934
			c10.619,2.866,20.461,6.052,29.25,9.466c3.604,1.4,5.391,5.455,3.991,9.059C2458.9,1321.253,2456.254,1322.949,2453.451,1322.949z
			 M2127.294,1311.656c-3.202,0-6.093-2.213-6.823-5.469c-0.846-3.772,1.525-7.516,5.297-8.363
			c9.658-2.168,19.686-4.144,29.803-5.873c3.82-0.645,7.428,1.911,8.078,5.721c0.652,3.811-1.908,7.428-5.719,8.08
			c-9.883,1.688-19.67,3.617-29.096,5.732C2128.317,1311.602,2127.802,1311.656,2127.294,1311.656z M2395.676,1307.002
			c-0.441,0-0.889-0.041-1.338-0.129c-9.332-1.807-19.166-3.414-29.227-4.78c-3.832-0.521-6.516-4.048-5.996-7.878
			c0.52-3.83,4.045-6.516,7.879-5.994c10.32,1.4,20.416,3.051,30.004,4.908c3.795,0.734,6.277,4.407,5.541,8.202
			C2401.893,1304.678,2398.961,1307.002,2395.676,1307.002z M2186.443,1301.495c-3.484,0-6.502-2.599-6.939-6.146
			c-0.473-3.837,2.256-7.33,6.092-7.803c9.896-1.219,20.045-2.244,30.166-3.049c3.828-0.302,7.227,2.568,7.533,6.424
			c0.305,3.854-2.57,7.227-6.424,7.533c-9.92,0.787-19.867,1.793-29.564,2.986
			C2187.017,1301.478,2186.728,1301.495,2186.443,1301.495z M2336.234,1298.846c-0.203,0-0.408-0.009-0.615-0.026
			c-9.715-0.847-19.689-1.499-29.644-1.935c-3.862-0.169-6.856-3.437-6.687-7.299c0.168-3.861,3.453-6.851,7.299-6.688
			c10.156,0.445,20.332,1.109,30.248,1.974c3.851,0.336,6.701,3.732,6.365,7.583
			C2342.883,1296.099,2339.826,1298.846,2336.234,1298.846z M2246.271,1296.725c-3.744,0-6.848-2.963-6.99-6.734
			c-0.146-3.865,2.867-7.115,6.73-7.262c9.371-0.356,18.885-0.535,28.279-0.535l2.021,0.003c3.865,0.012,6.99,3.154,6.979,7.021
			c-0.012,3.859-3.143,6.979-6.998,6.979c-0.008,0-0.016,0-0.021,0l-1.98-0.003c-9.219,0-18.555,0.178-27.75,0.525
			C2246.451,1296.722,2246.361,1296.725,2246.271,1296.725z"/>
	</g>
	<g>
		<path style="fill:#CFDBFF;" d="M1077.205,1155.411H897.143c-11.182,0-20.249,9.066-20.249,20.249v101.045
			c0,11.184,9.067,20.25,20.249,20.25h5.869l20.866,39.309c2.711,5.107,9.951,5.316,12.954,0.375l24.121-39.684h116.251
			c11.184,0,20.249-9.066,20.249-20.25V1175.66C1097.454,1164.478,1088.389,1155.411,1077.205,1155.411z"/>
		<path style="fill:#CFDBFF;" d="M983.376,1132.801L983.376,1132.801c-6.539,0-11.842-5.303-11.842-11.844v-36.008
			c0-6.541,5.303-11.844,11.842-11.844l0,0c6.54,0,11.842,5.303,11.842,11.844v36.008
			C995.218,1127.498,989.916,1132.801,983.376,1132.801z"/>
		<path style="fill:#CFDBFF;" d="M1026.287,1129.331L1026.287,1129.331c-4.624-4.624-4.624-12.122,0-16.746l25.463-25.462
			c4.625-4.624,12.122-4.624,16.746,0l0,0c4.625,4.624,4.625,12.121,0,16.746l-25.462,25.462
			C1038.409,1133.956,1030.912,1133.956,1026.287,1129.331z"/>
		<path style="fill:#CFDBFF;" d="M940.465,1129.331L940.465,1129.331c4.624-4.624,4.624-12.122,0-16.746l-25.463-25.462
			c-4.624-4.624-12.121-4.624-16.746,0l0,0c-4.624,4.624-4.624,12.121,0,16.746l25.463,25.462
			C928.343,1133.956,935.84,1133.956,940.465,1129.331z"/>
		<path style="fill:#FFFFFF;" d="M1066.281,1146.859H886.22c-11.183,0-20.249,9.066-20.249,20.25v101.045
			c0,11.183,9.066,20.249,20.249,20.249h5.869l20.865,39.309c2.712,5.107,9.952,5.317,12.954,0.377l24.121-39.685h116.252
			c11.182,0,20.249-9.066,20.249-20.249v-101.045C1086.53,1155.926,1077.464,1146.859,1066.281,1146.859z"/>
		<g>
			<path style="fill:#C4204A;" d="M1050.884,1178.473l0.052,78.934c0.002,3.009-2.43,5.444-5.435,5.447l-137.183,0.088
				c-3.004,0.002-5.439-2.429-5.442-5.438l-0.052-78.934c-0.002-3.009,2.431-5.445,5.435-5.447l137.183-0.091
				C1048.446,1173.03,1050.882,1175.461,1050.884,1178.473z"/>
			<path style="fill:#E62552;" d="M1050.884,1178.473l0.003,4.363l-62.475,44.934c-6.065,4.544-14.381,4.62-20.528,0.188
				l-65.059-46.896l-0.001-2.491c-0.002-3.007,2.434-5.445,5.439-5.447l137.174-0.091
				C1048.443,1173.03,1050.882,1175.466,1050.884,1178.473z"/>
		</g>
		<path style="fill:#FFFFFF;" d="M975.333,1125.309L975.333,1125.309c-6.54,0-11.842-5.301-11.842-11.842v-36.008
			c0-6.542,5.302-11.843,11.842-11.843l0,0c6.54,0,11.842,5.301,11.842,11.843v36.008
			C987.175,1120.008,981.873,1125.309,975.333,1125.309z"/>
		<path style="fill:#FFFFFF;" d="M1018.245,1121.84L1018.245,1121.84c-4.624-4.624-4.624-12.122,0-16.747l25.462-25.462
			c4.624-4.623,12.122-4.623,16.747,0l0,0c4.624,4.625,4.624,12.122,0,16.746l-25.463,25.463
			C1030.366,1126.464,1022.869,1126.464,1018.245,1121.84z"/>
		<path style="fill:#FFFFFF;" d="M932.422,1121.84L932.422,1121.84c4.624-4.624,4.624-12.122,0-16.747l-25.463-25.462
			c-4.624-4.623-12.121-4.623-16.746,0l0,0c-4.624,4.625-4.624,12.122,0,16.746l25.463,25.463
			C920.3,1126.464,927.797,1126.464,932.422,1121.84z"/>
	</g>
	<g>
		<path style="fill:#FFFFFF;" d="M2708.264,526.158h-189.098c-14.916,0-27.008-12.093-27.008-27.009v-80.693
			c0-14.915,12.092-27.008,27.008-27.008h189.098c14.916,0,27.008,12.093,27.008,27.008v80.693
			C2735.271,514.065,2723.18,526.158,2708.264,526.158z"/>
		<path style="fill:#FFFFFF;" d="M2593.42,759.465h-245.489c-19.364,0-35.063-15.698-35.063-35.065V619.645
			c0-19.364,15.699-35.063,35.063-35.063h245.489c19.365,0,35.063,15.699,35.063,35.063V724.4
			C2628.483,743.767,2612.785,759.465,2593.42,759.465z"/>
		<polygon style="fill:#FFFFFF;" points="2530.725,526.158 2530.725,596.19 2574.342,526.158 		"/>
		<path style="fill:#FFFFFF;" d="M2583.788,751.631v65.103c0,5.226-7.032,6.91-9.399,2.25l-34.217-67.353H2583.788z"/>
		<path style="fill:#E3EAFF;" d="M2695.904,446.121h-164.379c-7.965,0-14.42-6.455-14.42-14.419l0,0
			c0-7.963,6.455-14.419,14.42-14.419h164.379c7.963,0,14.42,6.456,14.42,14.419l0,0
			C2710.324,439.666,2703.867,446.121,2695.904,446.121z"/>
		<path style="fill:#E3EAFF;" d="M2695.904,492.689h-164.379c-7.965,0-14.42-6.456-14.42-14.42l0,0c0-7.963,6.455-14.42,14.42-14.42
			h164.379c7.963,0,14.42,6.457,14.42,14.42l0,0C2710.324,486.233,2703.867,492.689,2695.904,492.689z"/>
		<path style="fill:#E3EAFF;" d="M2587.328,639.238h-230.35c-8.859,0-16.041-7.182-16.041-16.04l0,0
			c0-8.858,7.182-16.041,16.041-16.041h230.35c8.859,0,16.041,7.183,16.041,16.041l0,0
			C2603.369,632.057,2596.188,639.238,2587.328,639.238z"/>
		<path style="fill:#E3EAFF;" d="M2587.328,690.12h-230.35c-8.859,0-16.041-7.181-16.041-16.04l0,0
			c0-8.858,7.182-16.04,16.041-16.04h230.35c8.859,0,16.041,7.182,16.041,16.04l0,0
			C2603.369,682.94,2596.188,690.12,2587.328,690.12z"/>
		<path style="fill:#E3EAFF;" d="M2589.684,741.003h-147.824c-7.558,0-13.685-6.127-13.685-13.686v-4.71
			c0-7.558,6.127-13.685,13.685-13.685h147.824c7.558,0,13.686,6.127,13.686,13.685v4.71
			C2603.369,734.876,2597.241,741.003,2589.684,741.003z"/>
	</g>
	<g>
		<path style="fill:#FFFFFF;" d="M504.797,826.335c-0.122,0-0.246-0.003-0.369-0.01c-3.861-0.2-6.828-3.493-6.628-7.354
			c0.23-4.435,1.225-16.348,5.465-31.155c1.065-3.717,4.94-5.869,8.656-4.803c3.717,1.065,5.866,4.941,4.803,8.657
			c-3.844,13.423-4.736,24.071-4.942,28.027C511.588,823.436,508.495,826.335,504.797,826.335z M521.185,768.937
			c-1.112,0-2.239-0.266-3.29-0.826c-3.41-1.82-4.699-6.062-2.879-9.471c5.026-9.42,11.072-18.149,17.968-25.947
			c2.56-2.897,6.984-3.168,9.88-0.608c2.896,2.562,3.168,6.985,0.607,9.881c-6.173,6.981-11.591,14.81-16.104,23.267
			C526.106,767.591,523.685,768.937,521.185,768.937z M560.584,724.477c-2.216,0-4.396-1.049-5.755-3.007
			c-2.206-3.175-1.42-7.537,1.755-9.742c8.396-5.832,17.691-10.858,27.629-14.94c3.577-1.469,7.665,0.241,9.134,3.816
			c1.469,3.576-0.24,7.665-3.816,9.134c-8.999,3.695-17.396,8.233-24.959,13.486C563.354,724.071,561.962,724.477,560.584,724.477z
			 M615.463,701.512c-3.229,0-6.134-2.248-6.838-5.534c-0.81-3.78,1.598-7.501,5.378-8.312c9.636-2.066,19.933-3.502,30.606-4.269
			c3.859-0.28,7.207,2.624,7.483,6.48c0.277,3.855-2.625,7.206-6.48,7.483c-10.025,0.721-19.674,2.064-28.675,3.993
			C616.443,701.461,615.949,701.512,615.463,701.512z M697.919,697.876c-4.351,0-8.834-0.153-13.326-0.454
			c-3.29-0.221-6.583-0.392-9.788-0.508c-3.863-0.141-6.882-3.386-6.742-7.249c0.141-3.864,3.383-6.864,7.25-6.742
			c3.347,0.121,6.785,0.3,10.218,0.53c6.558,0.44,13.045,0.538,19.219,0.286c3.851-0.15,7.121,2.848,7.277,6.711
			c0.157,3.862-2.848,7.121-6.71,7.278C702.892,697.826,700.402,697.876,697.919,697.876z M734.666,693.656
			c-3.148,0-6.007-2.137-6.792-5.329c-0.924-3.754,1.371-7.546,5.125-8.471c9.397-2.312,18.266-5.66,26.355-9.951
			c3.415-1.811,7.654-0.514,9.464,2.902c1.813,3.416,0.512,7.652-2.902,9.465c-9.107,4.831-19.057,8.593-29.572,11.18
			C735.782,693.591,735.22,693.656,734.666,693.656z M786.929,665.683c-1.86,0-3.716-0.736-5.094-2.197
			c-2.652-2.813-2.522-7.242,0.29-9.895c6.701-6.319,12.693-13.648,17.81-21.783c2.059-3.272,6.381-4.257,9.652-2.197
			c3.272,2.059,4.256,6.38,2.197,9.653c-5.746,9.135-12.493,17.382-20.055,24.513C790.378,665.051,788.651,665.683,786.929,665.683z
			 M818.873,615.575c-0.784,0-1.581-0.133-2.36-0.412c-3.64-1.305-5.533-5.313-4.229-8.951c3.141-8.763,5.521-18.114,7.079-27.79
			c0.614-3.817,4.199-6.413,8.023-5.8c3.816,0.614,6.413,4.206,5.799,8.023c-1.693,10.526-4.292,20.717-7.722,30.289
			C824.438,613.794,821.746,615.575,818.873,615.575z M1749.995,604.283c-2.375,0-4.691-1.209-6.006-3.392
			c-5.002-8.314-10.436-16.596-16.154-24.617c-2.243-3.148-1.51-7.52,1.638-9.763c3.147-2.244,7.519-1.512,9.763,1.637
			c5.927,8.315,11.563,16.903,16.75,25.524c1.993,3.313,0.924,7.614-2.389,9.607
			C1752.467,603.959,1751.223,604.283,1749.995,604.283z M776.339,557.909c-0.135,0-0.271-0.004-0.406-0.013
			c-10.794-0.619-21.149-1.98-30.781-4.047c-3.78-0.811-6.187-4.532-5.376-8.312c0.81-3.779,4.528-6.19,8.313-5.377
			c8.93,1.916,18.568,3.18,28.646,3.759c3.86,0.221,6.81,3.529,6.588,7.389C783.108,555.032,780.021,557.909,776.339,557.909z
			 M806.31,557.822c-3.683,0-6.768-2.875-6.982-6.599c-0.222-3.858,2.727-7.168,6.587-7.39c5.008-0.288,10.178-0.716,15.466-1.277
			c-0.322-7.277-1.084-14.523-2.273-21.623c-0.639-3.813,1.936-7.422,5.748-8.06c3.81-0.64,7.421,1.934,8.06,5.746
			c1.222,7.29,2.024,14.722,2.398,22.186c3.767-0.451,7.222,2.179,7.767,5.95c0.552,3.826-2.103,7.376-5.929,7.928
			c-1.498,0.217-2.991,0.425-4.478,0.621c-1.146,0.834-2.556,1.331-4.081,1.339c-0.893,0.002-1.832-0.176-2.65-0.505
			c-6.588,0.755-13.021,1.316-19.224,1.672C806.581,557.818,806.445,557.822,806.31,557.822z M1715.233,555.457
			c-2.011,0-4.005-0.86-5.388-2.526c-6.211-7.474-12.82-14.876-19.649-22.002c-2.674-2.792-2.579-7.223,0.212-9.897
			c2.791-2.675,7.224-2.58,9.899,0.212c7.055,7.363,13.886,15.014,20.305,22.74c2.471,2.974,2.063,7.387-0.91,9.857
			C1718.395,554.928,1716.809,555.457,1715.233,555.457z M865.672,549.458c-3.236,0-6.143-2.257-6.841-5.549
			c-0.802-3.782,1.614-7.498,5.396-8.301c9.229-1.955,18.928-4.283,28.829-6.916c3.733-0.994,7.57,1.229,8.565,4.965
			c0.993,3.735-1.229,7.57-4.966,8.564c-10.13,2.695-20.063,5.078-29.524,7.084C866.642,549.409,866.152,549.458,865.672,549.458z
			 M718.076,544.937c-0.937,0-1.888-0.188-2.8-0.588c-8.098-3.538-15.774-7.815-22.818-12.71c-1.486-1.032-2.937-2.06-4.35-3.083
			c-3.134-2.266-3.837-6.642-1.571-9.774c2.265-3.133,6.642-3.835,9.773-1.57c1.345,0.973,2.723,1.949,4.136,2.931
			c6.298,4.376,13.174,8.205,20.437,11.379c3.542,1.549,5.159,5.676,3.61,9.218C723.344,543.368,720.773,544.937,718.076,544.937z
			 M923.684,534.14c-2.987,0-5.755-1.929-6.684-4.933c-1.145-3.693,0.922-7.612,4.616-8.757c9.091-2.814,18.611-5.938,28.298-9.285
			c3.652-1.265,7.64,0.676,8.902,4.33c1.263,3.654-0.677,7.641-4.331,8.902c-9.828,3.396-19.494,6.566-28.729,9.426
			C925.066,534.037,924.37,534.14,923.684,534.14z M980.433,514.603c-2.835,0-5.503-1.734-6.557-4.545
			c-1.356-3.62,0.478-7.654,4.099-9.011c8.939-3.352,18.31-6.981,27.848-10.787c3.59-1.435,7.663,0.317,9.096,3.907
			c1.434,3.592-0.315,7.663-3.906,9.097c-9.63,3.842-19.092,7.506-28.124,10.893C982.079,514.458,981.248,514.603,980.433,514.603z
			 M1673.774,512.146c-1.684,0-3.372-0.603-4.714-1.827c-7.2-6.564-14.76-13.017-22.469-19.18c-3.021-2.414-3.512-6.818-1.098-9.838
			c2.414-3.02,6.817-3.513,9.839-1.098c7.944,6.352,15.736,13.002,23.159,19.768c2.857,2.605,3.062,7.033,0.457,9.89
			C1677.568,511.377,1675.675,512.146,1673.774,512.146z M669.162,510.729c-1.771,0-3.542-0.668-4.905-2.007
			c-8.819-8.667-15.39-17.266-19.529-25.557c-1.727-3.459-0.322-7.662,3.137-9.389c3.46-1.729,7.662-0.322,9.39,3.136
			c3.446,6.902,9.102,14.244,16.815,21.824c2.758,2.71,2.797,7.142,0.086,9.898C672.785,510.03,670.975,510.729,669.162,510.729z
			 M818.522,497.764c-2.872,0-5.564-1.779-6.589-4.638c-3.382-9.427-7.55-17.999-12.39-25.481c-2.101-3.246-1.171-7.58,2.075-9.68
			s7.579-1.17,9.68,2.075c5.422,8.383,10.069,17.923,13.811,28.358c1.306,3.64-0.586,7.647-4.226,8.952
			C820.104,497.631,819.307,497.764,818.522,497.764z M1036.197,492.4c-2.738,0-5.337-1.616-6.46-4.301
			c-1.492-3.565,0.188-7.667,3.754-9.159c8.755-3.663,18.014-7.615,27.521-11.741c3.548-1.541,7.67,0.087,9.208,3.633
			c1.539,3.547-0.087,7.67-3.633,9.209c-9.563,4.151-18.88,8.126-27.691,11.814C1038.014,492.224,1037.098,492.4,1036.197,492.4z
			 M1626.945,474.69c-1.389,0-2.791-0.411-4.014-1.269c-8.007-5.616-16.323-11.077-24.719-16.229
			c-3.295-2.023-4.326-6.334-2.304-9.628c2.023-3.295,6.33-4.327,9.628-2.305c8.638,5.303,17.194,10.921,25.434,16.699
			c3.165,2.221,3.931,6.586,1.712,9.751C1631.32,473.652,1629.15,474.69,1626.945,474.69z M1091.271,468.525
			c-2.679,0-5.235-1.545-6.396-4.15c-1.575-3.53,0.011-7.669,3.542-9.244c8.543-3.81,17.48-7.835,27.322-12.305
			c3.52-1.598,7.67-0.041,9.269,3.478c1.598,3.521,0.04,7.669-3.479,9.269c-9.87,4.482-18.837,8.521-27.41,12.345
			C1093.192,468.33,1092.225,468.525,1091.271,468.525z M648.567,458.144c-0.915,0-1.846-0.182-2.741-0.563
			c-3.557-1.516-5.21-5.628-3.694-9.184c4.133-9.694,12.802-17.807,25.07-23.463c3.513-1.617,7.67-0.085,9.288,3.428
			c1.618,3.51,0.085,7.668-3.427,9.287c-9.063,4.177-15.305,9.792-18.054,16.237C653.876,456.547,651.288,458.144,648.567,458.144z
			 M785.443,448.663c-1.483,0-2.979-0.471-4.248-1.441c-4.854-3.715-10.019-6.538-15.347-8.394
			c-3.055-1.064-6.188-2.051-9.317-2.932c-3.721-1.049-5.887-4.916-4.838-8.637c1.048-3.722,4.914-5.891,8.636-4.838
			c3.399,0.957,6.805,2.029,10.123,3.185c6.735,2.345,13.212,5.877,19.25,10.497c3.07,2.349,3.656,6.742,1.307,9.813
			C789.631,447.717,787.549,448.663,785.443,448.663z M1145.937,443.732c-2.652,0-5.188-1.515-6.366-4.083
			c-1.612-3.513-0.07-7.669,3.443-9.281c6.277-2.88,12.52-5.75,18.72-8.6l8.549-3.929c3.512-1.615,7.668-0.075,9.284,3.438
			c1.613,3.513,0.074,7.669-3.438,9.282l-8.547,3.93c-6.204,2.852-12.448,5.724-18.73,8.604
			C1147.906,443.525,1146.913,443.732,1145.937,443.732z M1575.845,443.306c-1.114,0-2.242-0.267-3.293-0.828
			c-8.654-4.624-17.568-9.053-26.495-13.163c-3.512-1.616-5.048-5.774-3.431-9.285c1.616-3.513,5.776-5.048,9.286-3.432
			c9.177,4.226,18.342,8.778,27.237,13.533c3.41,1.821,4.696,6.062,2.875,9.472C1580.764,441.963,1578.345,443.306,1575.845,443.306
			z M699.033,430.741c-3.516,0-6.545-2.643-6.947-6.218c-0.433-3.842,2.331-7.307,6.173-7.738c9.917-1.117,20.625-1.161,31.396-0.13
			c3.85,0.369,6.67,3.787,6.302,7.635c-0.368,3.85-3.801,6.661-7.635,6.301c-9.812-0.939-19.541-0.902-28.496,0.106
			C699.559,430.727,699.295,430.741,699.033,430.741z M1200.495,418.698c-2.657,0-5.198-1.522-6.373-4.099
			c-1.603-3.518-0.052-7.668,3.466-9.272c3.153-1.439,6.292-2.866,9.415-4.283c6.051-2.745,12.306-5.339,18.59-7.71
			c3.616-1.365,7.655,0.461,9.021,4.079c1.364,3.617-0.462,7.656-4.079,9.02c-6.001,2.265-11.973,4.741-17.747,7.361
			c-3.115,1.413-6.246,2.837-9.392,4.271C1202.454,418.494,1201.467,418.698,1200.495,418.698z M1521.373,418.223
			c-0.848,0-1.708-0.154-2.544-0.481c-9.167-3.579-18.542-6.921-27.865-9.934c-3.679-1.19-5.697-5.135-4.509-8.814
			c1.189-3.679,5.137-5.697,8.814-4.509c9.588,3.098,19.228,6.535,28.652,10.215c3.601,1.406,5.38,5.466,3.974,9.066
			C1526.815,416.531,1524.172,418.223,1521.373,418.223z M1464.307,399.796c-0.577,0-1.163-0.072-1.747-0.222
			c-9.563-2.457-19.267-4.631-28.847-6.46c-3.797-0.725-6.288-4.391-5.563-8.188c0.725-3.798,4.388-6.289,8.188-5.563
			c9.865,1.884,19.86,4.122,29.705,6.652c3.744,0.962,6,4.777,5.037,8.522C1470.27,397.697,1467.425,399.796,1464.307,399.796z
			 M1256.592,397.652c-3.079,0-5.9-2.047-6.749-5.16c-1.017-3.729,1.182-7.578,4.911-8.596c9.696-2.645,19.744-4.907,29.864-6.724
			c3.806-0.688,7.444,1.848,8.128,5.652c0.683,3.806-1.848,7.443-5.653,8.127c-9.716,1.745-19.355,3.915-28.655,6.452
			C1257.821,397.572,1257.201,397.652,1256.592,397.652z M1405.402,388.569c-0.287,0-0.577-0.019-0.87-0.055
			c-9.809-1.216-19.701-2.103-29.403-2.636c-3.86-0.213-6.817-3.514-6.606-7.373c0.213-3.861,3.502-6.825,7.374-6.605
			c10.021,0.55,20.234,1.465,30.359,2.722c3.836,0.476,6.561,3.973,6.085,7.809C1411.9,385.974,1408.884,388.569,1405.402,388.569z
			 M1315.565,387c-3.567,0-6.615-2.714-6.96-6.337c-0.367-3.849,2.455-7.266,6.304-7.632c9.984-0.952,20.242-1.526,30.488-1.708
			c3.888-0.047,7.054,3.009,7.123,6.874c0.068,3.866-3.01,7.055-6.875,7.124c-9.887,0.175-19.781,0.73-29.408,1.646
			C1316.013,386.989,1315.787,387,1315.565,387z"/>
	</g>
	<g>
		<polygon style="fill:#BDCDFF;" points="1755.964,556.089 1733.294,593.215 1928.434,726.35 		"/>
		<polygon style="fill:#BDCDFF;" points="1713.175,637.776 1724.987,680.353 1919.754,720.215 		"/>
		<polygon style="fill:#FFFFFF;" points="1928.434,726.35 1599.354,614.184 1713.171,574.157 		"/>
		<polygon style="fill:#FFFFFF;" points="1755.964,556.089 1928.434,726.35 1827.489,525.89 		"/>
	</g>
	<g>
		<path style="fill:#FFFFFF;" d="M2761.285,328.147c-3.863,0-6.996-3.131-7-6.994c-0.002-3.867,3.129-7.003,6.996-7.006
			c10.068-0.008,19.479-1.12,27.967-3.307c3.744-0.964,7.561,1.29,8.525,5.033c0.965,3.743-1.289,7.56-5.033,8.524
			c-9.625,2.479-20.205,3.741-31.449,3.749C2761.291,328.147,2761.287,328.147,2761.285,328.147z M2731.447,325.484
			c-0.389,0-0.783-0.033-1.18-0.101c-9.553-1.618-19.645-3.978-30-7.014c-3.709-1.086-5.836-4.976-4.748-8.686
			c1.088-3.71,4.98-5.834,8.686-4.748c9.832,2.881,19.387,5.116,28.402,6.645c3.813,0.646,6.379,4.259,5.732,8.071
			C2737.76,323.068,2734.799,325.484,2731.447,325.484z M2818.268,312.5c-2.24,0-4.441-1.073-5.795-3.066
			c-2.174-3.196-1.342-7.551,1.855-9.724c6.611-4.494,12.527-10.128,17.586-16.744c2.349-3.072,6.742-3.655,9.813-1.311
			c3.07,2.348,3.658,6.741,1.311,9.813c-5.973,7.814-12.983,14.482-20.84,19.821C2820.992,312.108,2819.623,312.5,2818.268,312.5z
			 M2334.299,310.946c-1.406,0-2.824-0.422-4.057-1.3c-3.148-2.244-3.881-6.615-1.637-9.764c5.674-7.96,12.41-15.951,20.018-23.75
			c2.701-2.768,7.131-2.822,9.9-0.123c2.766,2.701,2.82,7.132,0.121,9.899c-7.109,7.286-13.381,14.722-18.639,22.1
			C2338.639,309.925,2336.486,310.946,2334.299,310.946z M2673.857,308.923c-0.847,0-1.705-0.154-2.541-0.48
			c-9.109-3.552-18.527-7.614-27.992-12.073c-3.498-1.648-4.998-5.819-3.35-9.316s5.818-4.997,9.316-3.349
			c9.176,4.324,18.299,8.259,27.111,11.694c3.602,1.404,5.383,5.463,3.979,9.064
			C2679.303,307.229,2676.658,308.923,2673.857,308.923z M2619.543,283.454c-1.131,0-2.275-0.275-3.338-0.852
			c-8.75-4.755-17.596-9.865-26.293-15.192c-3.297-2.018-4.334-6.328-2.314-9.624c2.018-3.297,6.326-4.335,9.625-2.315
			c8.492,5.2,17.129,10.191,25.668,14.831c3.396,1.847,4.654,6.097,2.809,9.493C2624.43,282.13,2622.025,283.454,2619.543,283.454z
			 M2375.908,267.927c-2.061,0-4.102-0.904-5.482-2.641c-2.408-3.026-1.906-7.43,1.119-9.837
			c8.111-6.455,16.619-12.404,25.289-17.682c3.303-2.012,7.609-0.964,9.619,2.338c2.01,3.302,0.963,7.609-2.338,9.619
			c-8.172,4.975-16.197,10.588-23.854,16.681C2378.973,267.429,2377.436,267.927,2375.908,267.927z M2568.365,252.134
			c-1.361,0-2.736-0.396-3.945-1.223c-3.096-2.117-6.197-4.282-9.219-6.436c-4.918-3.504-10.047-6.617-15.244-9.257
			c-3.447-1.75-4.822-5.963-3.072-9.41c1.75-3.447,5.96-4.823,9.41-3.072c5.816,2.952,11.547,6.431,17.029,10.337
			c2.949,2.102,5.977,4.215,8.998,6.282c3.191,2.183,4.01,6.538,1.828,9.73C2572.793,251.067,2570.598,252.134,2568.365,252.134z
			 M2427.092,236.937c-2.711,0-5.291-1.584-6.432-4.232c-1.529-3.551,0.109-7.669,3.66-9.197c9.84-4.238,19.772-7.586,29.522-9.949
			c3.755-0.913,7.542,1.396,8.452,5.153c0.912,3.757-1.396,7.541-5.152,8.451c-8.986,2.18-18.166,5.275-27.285,9.202
			C2428.955,236.753,2428.018,236.937,2427.092,236.937z M2514.957,225.929c-0.492,0-0.992-0.052-1.494-0.16
			c-9.029-1.965-18.527-2.808-28.1-2.519c-3.844,0.135-7.094-2.918-7.211-6.783c-0.117-3.864,2.92-7.093,6.785-7.209
			c10.691-0.33,21.355,0.623,31.5,2.829c3.779,0.822,6.174,4.551,5.354,8.328C2521.078,223.692,2518.179,225.929,2514.957,225.929z"
			/>
	</g>
	<g>
		<polygon style="fill:#BDCDFF;" points="2327.545,282.625 2337.643,314.469 2167.707,377.974 		"/>
		<polygon style="fill:#BDCDFF;" points="2344.477,351.39 2327.861,380.976 2175.304,374.989 		"/>
		<polygon style="fill:#FFFFFF;" points="2167.707,377.974 2433.684,354.665 2356.145,303.946 		"/>
		<polygon style="fill:#FFFFFF;" points="2327.545,282.625 2167.707,377.974 2279.742,246.989 		"/>
	</g>
	<g>
		<path style="fill:#FFFFFF;" d="M2142.48,672.651c8.266-6.246,18.186-9.368,29.759-9.368c24.983,0,38.21,13.594,38.21,32.698
			c0,11.023-5.328,22.227-16.166,33.434c-13.777,14.513-23.697,21.676-29.943,21.676c-6.062,0-10.471-4.775-10.471-10.469
			c0-5.145,4.776-10.289,13.043-17.82c0.551-0.552,1.102-1.103,1.47-1.286c9.368-8.634,12.308-13.409,12.308-19.287
			c0-7.35-4.959-11.391-12.124-11.391c-3.307,0-7.164,0.735-11.757,2.204c-4.592,1.47-7.898,2.205-9.92,2.205
			c-5.144,0-11.021-4.409-11.021-11.757C2135.867,679.632,2138.071,675.958,2142.48,672.651z M2167.646,795.18
			c-11.205,0-18.736-8.451-18.736-18.737c0-8.817,7.531-17.267,18.736-17.267c9.736,0,17.268,8.45,17.268,17.267
			C2184.914,786.547,2177.75,795.18,2167.646,795.18z"/>
	</g>
	<g>
		<path style="fill:#FFFFFF;" d="M1196.596,192.179c6.538-4.941,14.385-7.411,23.539-7.411c19.763,0,30.225,10.753,30.225,25.865
			c0,8.719-4.214,17.582-12.787,26.446c-10.897,11.479-18.745,17.146-23.684,17.146c-4.796,0-8.283-3.778-8.283-8.282
			c0-4.069,3.778-8.138,10.316-14.096c0.437-0.436,0.872-0.872,1.163-1.017c7.411-6.83,9.736-10.607,9.736-15.258
			c0-5.813-3.924-9.009-9.591-9.009c-2.616,0-5.667,0.58-9.301,1.743c-3.633,1.163-6.248,1.744-7.846,1.744
			c-4.069,0-8.72-3.487-8.72-9.301C1191.363,197.7,1193.107,194.794,1196.596,192.179z M1216.502,289.1
			c-8.863,0-14.821-6.684-14.821-14.82c0-6.975,5.958-13.659,14.821-13.659c7.702,0,13.66,6.684,13.66,13.659
			C1230.162,282.272,1224.495,289.1,1216.502,289.1z"/>
	</g>
	<g>
		<path style="fill:#CDD8FA;" d="M890.663,266.989l-58.837,108.855c-2.243,4.149-7.414,5.691-11.557,3.453L631.087,277.04
			c-4.143-2.239-5.686-7.41-3.442-11.56l58.837-108.854c2.243-4.149,7.414-5.691,11.557-3.452l189.183,102.256
			C891.363,257.669,892.906,262.841,890.663,266.989z"/>
		<path style="fill:#FFFFFF;" d="M890.663,266.989l-3.253,6.018l-119.658,15.318c-11.754,1.738-23.273-4.362-28.441-15.06
			l-54.685-113.201l1.856-3.437c2.241-4.146,7.418-5.69,11.563-3.449l189.17,102.249
			C891.359,257.667,892.904,262.844,890.663,266.989z"/>
	</g>
	<g>
		<path style="fill:#FFFFFF;" d="M2023.522,484.792c-30.03,0-54.46-24.431-54.46-54.46s24.43-54.461,54.46-54.461
			c30.029,0,54.461,24.432,54.461,54.461S2053.552,484.792,2023.522,484.792z M2023.522,390.871c-21.76,0-39.46,17.702-39.46,39.461
			c0,21.759,17.7,39.46,39.46,39.46c21.758,0,39.461-17.701,39.461-39.46C2062.983,408.573,2045.28,390.871,2023.522,390.871z"/>
	</g>
	<g>
		<path style="fill:#E3EAFF;" d="M3023.2,855.63c-30.029,0-54.46-24.431-54.46-54.461c0-30.03,24.431-54.459,54.46-54.459
			c30.03,0,54.461,24.429,54.461,54.459C3077.661,831.199,3053.23,855.63,3023.2,855.63z M3023.2,761.71
			c-21.758,0-39.46,17.7-39.46,39.459s17.702,39.461,39.46,39.461c21.76,0,39.461-17.702,39.461-39.461
			S3044.96,761.71,3023.2,761.71z"/>
	</g>
	<circle style="fill:#FFFFFF;" cx="2114.522" cy="343.664" r="31.093"/>
	<circle style="fill:#E3EAFF;" cx="3025.668" cy="678.724" r="31.093"/>
	<path style="fill:#7F99EB;" d="M133.691,1120.749c0,24.46-19.831,44.292-44.293,44.292s-44.292-19.832-44.292-44.292
		c0-24.462,19.83-44.293,44.292-44.293S133.691,1096.287,133.691,1120.749z"/>
	<g>
		<path style="fill:#FFFFFF;" d="M85.825,1148.686c-0.011,0-0.021,0-0.032,0c-2.155-0.012-4.164-1.089-5.365-2.879l-18.219-27.152
			c-2-2.982-1.205-7.021,1.776-9.021c2.981-2,7.019-1.205,9.019,1.775l12.878,19.195l21.803-31.823
			c2.029-2.962,6.075-3.719,9.036-1.69c2.962,2.03,3.718,6.076,1.688,9.038l-27.222,39.731
			C89.975,1147.629,87.969,1148.686,85.825,1148.686z"/>
	</g>
	<circle style="fill:#7F99EB;" cx="124.987" cy="1171.665" r="12.691"/>
</g>
</svg>
